<svg width="1129" height="846" viewBox="0 0 1129 846" fill="none" xmlns="http://www.w3.org/2000/svg">
<path fill-rule="evenodd" clip-rule="evenodd" d="M1127.33 -11.0947C1125.47 -8.48189 1121.27 2.19915 1120.22 6.99252C1118.84 13.2793 1119.45 27.433 1121.47 36.0181L1123.52 44.7255L1113.44 54.2516C1107.89 59.491 1102.84 63.4622 1102.22 63.0768C1100.98 62.3073 1102.01 22.5081 1103.58 10.631C1104.08 6.85759 1104.3 3.56215 1104.06 3.30716C1103.83 3.05331 1102.58 5.36882 1101.29 8.45272C1100 11.5378 1098.47 14.9144 1097.91 15.9572C1097.34 17.0001 1096.01 22.1353 1094.95 27.3712C1093.29 35.5584 1093.22 38.1643 1094.42 46.0142C1095.18 51.0339 1096.54 56.5488 1097.43 58.2709C1099.75 62.7658 1099.42 66.4843 1096.47 69.1943C1092.94 72.444 1069.41 87.8144 1067.98 87.8144C1067.31 87.8144 1067.13 86.7064 1067.54 85.2416C1067.94 83.826 1068.77 73.1495 1069.39 61.5149C1070.41 42.2282 1072.81 22.3034 1074.71 17.3568C1076.06 13.8235 1072.96 16.7908 1069.98 21.8723C1065.44 29.6421 1060.66 42.1744 1059.3 49.8573C1057.79 58.4401 1059.16 72.7711 1062.42 82.6883C1063.64 86.3931 1064.42 89.7857 1064.15 90.2259C1063.15 91.8359 1035.98 102.692 1028.73 104.376C1016.94 107.116 1017.55 107.611 1018.48 96.1045C1018.92 90.6021 1021.31 76.3535 1023.77 64.4421C1028.1 43.5854 1029.38 32.1006 1027.24 33.4224C1025.64 34.4184 1020.45 44.8901 1016.54 55.0555C1013.11 63.9481 1012.95 65.1293 1012.93 80.9536C1012.91 94.8284 1013.25 98.2404 1015.02 101.863C1016.19 104.244 1016.89 106.445 1016.58 106.755C1016.27 107.064 1011.2 107.747 1005.3 108.272C996.562 109.05 995.78 109.254 1001.07 109.382C1011.02 109.625 1024.43 107.442 1034.82 103.889L1044.23 100.67L1046.46 104.247C1050.62 110.932 1070.73 128.68 1080.21 134.031C1082.09 135.094 1085.69 137.223 1088.2 138.762C1092.35 141.31 1110.33 147.785 1111.1 147.012C1112.08 146.031 1076.81 119.597 1063.74 111.517C1055.31 106.305 1048.23 101.507 1048.01 100.856C1047.8 100.203 1052.64 97.2742 1058.78 94.347C1064.91 91.4208 1073.84 86.4811 1078.61 83.3709L1087.29 77.7154L1090.6 79.9668C1097.78 84.8528 1109.92 90.3243 1118.25 92.4283C1123.07 93.6449 1127.4 94.6477 1127.87 94.658C1128.34 94.6671 1128.73 92.4408 1128.73 89.7091L1128.73 84.7431L1117.6 82.7717C1101.64 79.9451 1091.05 77.4112 1091.05 76.4164C1091.05 75.943 1097.2 70.3012 1104.72 63.8784C1112.23 57.4556 1119.38 50.835 1120.59 49.1667C1122.13 47.0501 1123.69 46.2074 1125.76 46.3789C1128.34 46.5928 1128.73 46.1845 1128.73 43.2424C1128.73 40.7062 1128.3 40.0259 1127.01 40.5187C1125.58 41.0698 1125.31 39.716 1125.33 32.1932C1125.34 27.2523 1125.83 21.1508 1126.42 18.6352C1127 16.1196 1127.81 7.88671 1128.22 0.339886C1128.87 -11.7259 1128.76 -13.106 1127.33 -11.0947ZM1128.16 446.039C1127.53 446.31 1123.25 448.71 1118.65 451.372C1114.05 454.034 1109.98 455.913 1109.62 455.546C1109.25 455.18 1110.03 450.375 1111.35 444.867C1112.66 439.36 1114.54 430.48 1115.53 425.134C1116.52 419.789 1117.82 412.842 1118.43 409.698C1119.04 406.553 1119.83 401.15 1120.2 397.691L1120.87 391.402L1117.29 395.405C1112.36 400.921 1110 405.832 1106.56 417.708C1103.19 429.333 1102.87 436.687 1105.32 446.104C1107.9 456.034 1107.64 457.365 1102.54 460.281C1097.17 463.356 1077.7 472.016 1076.16 472.016C1074.28 472.016 1075.02 460.644 1077.97 444.001C1079.53 435.197 1081.56 422.59 1082.48 415.987C1083.4 409.383 1084.43 402.483 1084.76 400.651C1085.33 397.468 1085.27 397.407 1083.24 399.244C1079.7 402.456 1070.66 420.932 1068.83 428.696C1065.73 441.873 1066.8 455.058 1072.37 472.128C1072.82 473.508 1071.68 474.317 1067.72 475.425C1063.65 476.567 1062.82 477.178 1063.99 478.171C1064.81 478.873 1066.71 482.279 1068.22 485.738C1074.44 500.069 1090.1 515.986 1107.46 525.62C1113.56 529 1118.81 531.497 1119.14 531.166C1120.3 530.008 1106.1 514.74 1087.53 497.172C1077.22 487.424 1068.64 478.881 1068.45 478.187C1068.27 477.493 1075.06 473.952 1083.54 470.318L1098.97 463.71L1110.28 474.438C1116.5 480.338 1123.19 486.096 1125.16 487.232L1128.73 489.297L1128.73 483.649L1128.73 478.001L1122.13 474.065C1118.5 471.901 1112.59 468.781 1109 467.134C1105.41 465.486 1102.47 463.65 1102.47 463.053C1102.47 462.456 1107.5 459.091 1113.64 455.574C1123.23 450.09 1131.76 444.483 1128.16 446.039ZM1120.72 758.609C1107.08 755.755 1098.65 755.251 1087.97 756.65C1081.84 757.452 1073.48 758.82 1069.39 759.689C1065.29 760.56 1059.89 761.334 1057.37 761.412C1048.6 761.68 1070.4 764.769 1085.91 765.454C1098.6 766.014 1102.13 765.765 1110.23 763.735C1115.44 762.429 1120.57 760.875 1121.63 760.282C1123.3 759.349 1123.17 759.122 1120.72 758.609ZM1085.05 721.85C1083.64 722.24 1077.66 724.908 1071.76 727.777C1063.28 731.897 1059.41 734.643 1053.36 740.827C1049.14 745.134 1045.03 750.347 1044.21 752.411C1041.56 759.088 1041.62 759.073 1030.2 756.018C1019.02 753.028 991.407 741.032 992.316 739.56C993.602 737.476 1030.21 714.019 1041.81 707.85C1054.04 701.34 1055.9 699.564 1050.46 699.564C1045.96 699.564 1027.97 705.31 1018.39 709.805C1007.15 715.079 1000.21 721.236 994.382 731.097C990.619 737.462 989.652 738.394 987.379 737.851C984.515 737.166 964.97 725.636 960.091 721.752L957.08 719.356L964.47 713.54C968.534 710.34 980.569 701.899 991.216 694.782C1009.41 682.62 1015.17 678.502 1022.41 672.488L1025.41 669.997L1020.27 670.591C1013.6 671.364 998.839 676.876 989.446 682.1C981.333 686.613 966.733 700.007 962.961 706.395C958.353 714.199 955.757 717.843 954.804 717.851C954.274 717.856 946.955 712.698 938.539 706.388C921.043 693.273 906.555 679.884 907.755 677.94C908.197 677.223 912.245 674.781 916.75 672.51C929.166 666.254 946.637 655.511 957.611 647.387C963.02 643.382 967.746 640.104 968.114 640.104C968.482 640.104 971.762 638.305 975.403 636.106L982.025 632.106L977.436 632.104C966.314 632.096 941.342 642.394 925.949 653.337C919.957 657.595 912.91 665.124 906.774 673.822C905.231 676.007 905.085 676.016 902.918 674.053C901.681 672.93 896.889 666.868 892.272 660.581C887.654 654.295 883.705 649.667 883.497 650.296C882.741 652.565 901.197 675.277 915.107 689.2L929.316 703.419L926.769 707.852C925.369 710.29 922.363 717.27 920.091 723.362C915.96 734.436 915.959 734.444 915.944 753.307C915.932 770.545 916.875 779.41 920.418 795.329C921.808 801.574 922.927 796.71 923.578 781.582C923.966 772.606 925.027 760.643 925.938 754.997C927.795 743.488 930.667 711.813 930.213 707.854C930.049 706.44 930.503 705.281 931.22 705.281C932.609 705.281 939.592 709.887 948.917 716.954C952.057 719.333 955.009 721.282 955.479 721.285C955.949 721.288 958.928 723.158 962.102 725.441C967.076 729.021 967.784 730.004 967.246 732.587C962.82 753.812 965.244 776.585 974.592 801.608C975.925 805.177 977.998 809.278 979.197 810.719L981.378 813.338L981.407 808.193C981.447 801.152 979.069 782.086 975.345 759.596C972.412 741.884 971.249 733.417 971.686 732.978C971.919 732.746 976.909 735.059 982.775 738.119C988.642 741.179 997.679 745.571 1002.86 747.88L1012.28 752.076L1012.3 762.125C1012.3 767.651 1013.07 775.387 1013.99 779.314C1015.7 786.558 1023.05 802.35 1029.36 812.315C1032.72 817.609 1032.83 817.678 1032.81 814.42C1032.72 801.913 1029.4 789.363 1020.74 768.861C1017.32 760.751 1014.77 753.858 1015.08 753.546C1015.4 753.232 1018.09 753.909 1021.07 755.049C1024.05 756.188 1029.81 757.935 1033.88 758.93L1041.27 760.739L1043.17 767.028C1045.61 775.059 1049.05 780.966 1057.77 792.055C1063.84 799.767 1072.37 808.104 1077.07 810.908C1077.86 811.377 1076.7 807.803 1074.5 802.965C1070.24 793.619 1062.67 782.7 1051.97 770.493C1048.37 766.387 1045.42 762.641 1045.41 762.169C1045.4 761.696 1047.06 761.258 1049.1 761.194L1052.81 761.076L1049.04 760.183C1041.83 758.472 1042.18 757.917 1057.14 747.605C1063.55 743.191 1072.38 736.235 1076.77 732.149C1081.16 728.063 1085.09 724.72 1085.5 724.72C1085.91 724.72 1086.55 723.915 1086.93 722.931C1087.46 721.528 1087.06 721.293 1085.05 721.85ZM1066.36 544.626C1060.62 537.222 1055.98 530.767 1033.2 498.463C1028.6 491.941 1024.84 486.226 1024.84 485.765C1024.84 485.303 1028.51 484.617 1033 484.24C1040.97 483.571 1062.59 478.712 1060.58 478.042C1060.03 477.857 1054.72 478.723 1048.78 479.966C1042.85 481.21 1037.61 481.836 1037.13 481.359C1036.66 480.883 1037.25 476.914 1038.45 472.538C1039.66 468.163 1041.97 456.351 1043.6 446.288C1045.22 436.226 1047.24 423.749 1048.08 418.56C1048.93 413.371 1049.26 409.126 1048.82 409.126C1047.06 409.126 1037.35 430.878 1035.03 439.999C1032.27 450.892 1031.83 458.788 1033.17 473.445L1034.09 483.451L1027.73 483.451C1021.38 483.451 1021.37 483.455 1022.08 486.595C1026.69 506.931 1035.38 522.448 1050.17 536.721C1057.37 543.681 1072.88 555.272 1072.68 553.546C1072.62 553.042 1069.77 549.028 1066.36 544.626ZM1054.78 297.019C1049.74 291.071 1044.15 285.135 1042.36 283.829C1035.38 278.733 1023.91 273.075 1017.97 271.8C1012.46 270.618 991.334 262.749 989.955 261.368C989.667 261.079 996.498 254.481 1005.14 246.707C1022.54 231.042 1030.96 222.773 1030.24 222.052C1029.28 221.096 1020.11 225.03 1014.83 228.657C1006.29 234.533 994.537 247.167 991.136 254.129C989.431 257.62 987.712 260.488 987.314 260.502C985.652 260.559 948.348 249.601 948.366 249.061C948.376 248.735 950.56 246.128 953.218 243.266C967.564 227.816 979.642 214.45 985.455 207.592C989.053 203.347 992.449 199.873 993.004 199.873C993.559 199.873 994.012 199.321 994.012 198.646C994.012 196.915 982.411 203.649 972.626 211.059C959.593 220.929 947.51 236.455 945.401 246.04C944.682 249.311 944.643 249.324 938.235 248.542C934.691 248.111 925.958 247.304 918.826 246.75C911.693 246.197 905.624 245.51 905.337 245.224C904.4 244.284 916.035 223.175 925.093 209.38C929.086 203.3 938.085 192.044 944.535 185.063C945.959 183.522 946.973 182.108 946.788 181.923C945.516 180.648 931.457 190.397 924.275 197.535C912.025 209.708 904.183 224.796 902.132 240.14C901.465 245.132 901.141 245.573 897.765 246.082C882.63 248.362 871.872 250.627 862.634 253.477C856.718 255.303 851.703 256.327 851.489 255.754C850.454 252.975 874.581 198.703 882.367 186.297L884.789 182.44L882.033 183.915C878.478 185.817 866.942 197.73 862.808 203.767C859.022 209.296 853.484 220.118 850.074 228.651C848.262 233.186 847.542 237.827 847.266 246.755L846.895 258.761L838.541 262.567C829.32 266.768 822.392 270.774 823.109 271.494C823.365 271.749 829.171 269.176 836.013 265.774C846.437 260.593 872.194 251.329 876.179 251.329C876.81 251.329 877.68 255.573 878.111 260.762C878.997 271.414 881.107 280.972 884.612 290.206C887.782 298.564 899.755 320.771 903.413 325.082C906.273 328.454 906.313 328.463 905.729 325.654C903.957 317.15 889.612 275.181 883.74 261.32C881.405 255.81 879.794 251.002 880.16 250.635C881.95 248.843 902.739 246.882 911.814 247.649L921.518 248.47L922.188 265.05C922.88 282.169 924.553 289.579 930.305 300.988C937.113 314.489 946.518 328.114 944.563 321.642C944.185 320.389 942.826 314.219 941.542 307.93C940.259 301.641 937.692 291.864 935.835 286.204C931.895 274.188 924.977 254.008 923.719 250.86C922.888 248.78 923.31 248.71 932.456 249.4C937.743 249.799 944.636 250.782 947.776 251.585L953.484 253.044L954.293 263.578C955.166 274.939 958.556 286.506 964.947 299.926C969.421 309.32 975.614 319.306 976.447 318.472C977.272 317.646 970.297 289.656 967.551 282.774C966.297 279.629 963.055 272.073 960.349 265.983C957.641 259.893 955.663 254.673 955.953 254.383C956.242 254.093 959.145 254.532 962.402 255.36C965.66 256.187 971.596 257.685 975.594 258.688C986.915 261.53 986.576 261.084 986.707 273.26C986.8 281.971 987.369 285.247 989.816 291.201C994.234 301.954 1008.82 324.029 1009.72 321.323C1010.35 319.433 999.142 286.895 994.085 275.931C991.534 270.399 989.446 265.375 989.446 264.767C989.446 263.283 993.944 264.489 1003.94 268.65C1009.32 270.891 1015.42 274.801 1021.63 279.994C1033.06 289.543 1061.08 308.789 1062.75 308.232C1063.4 308.013 1059.81 302.969 1054.78 297.019ZM991.094 481.8C988.804 481.369 986.701 481.245 986.421 481.524C986.143 481.804 987.789 482.385 990.08 482.815C992.371 483.246 994.473 483.37 994.753 483.091C995.032 482.81 993.385 482.23 991.094 481.8ZM986.592 108.685C984.08 108.697 983.187 108.932 984.607 109.205C986.028 109.478 988.083 109.468 989.174 109.182C990.265 108.896 989.103 108.672 986.592 108.685ZM926.887 435.263C915.764 424.966 904.988 420.996 880.672 418.238C874.899 417.583 869.813 416.68 869.37 416.23C868.928 415.782 876.498 406.82 886.194 396.315C895.889 385.81 903.822 376.981 903.822 376.698C903.822 374.619 893.355 380.17 885.207 386.569C880.681 390.122 871.079 403.576 868.522 409.946C866.279 415.528 865.114 416.053 857.506 414.902C853.782 414.338 844.7 413.529 837.322 413.104C829.944 412.679 823.907 411.863 823.907 411.293C823.907 410.722 828.199 404.727 833.445 397.97C838.69 391.214 844.471 383.579 846.288 381.005C848.107 378.431 851.906 373.333 854.732 369.677C857.557 366.02 861.277 361.041 862.997 358.611L866.124 354.193L862.864 355.882C859.046 357.86 850.415 364.352 844.805 369.464C835.353 378.079 825.405 394.633 822.343 406.839L821.053 411.985L807.924 412.787C795.749 413.532 783.921 414.87 773.306 416.703L768.942 417.456L770.837 413.006C771.88 410.558 774.229 404.709 776.056 400.008C777.885 395.307 782.274 386.56 785.811 380.569C789.346 374.579 794.494 365.87 797.25 361.217C800.005 356.565 802.093 352.592 801.89 352.388C801.685 352.184 798.902 353.783 795.704 355.94C781.386 365.598 769.922 387.392 768.162 408.304L767.396 417.403L751.591 422.87C742.899 425.876 730.399 430.96 723.811 434.168C717.225 437.375 711.566 439.999 711.236 439.999C710.383 439.999 711.462 434.036 714.233 423.419C715.547 418.388 717.327 410.412 718.19 405.696C720.632 392.34 725.681 374.636 728.235 370.474C731.852 364.58 729.957 365.013 724.235 371.387C717.261 379.156 713.813 385.613 708.978 399.96C704.942 411.933 704.927 412.051 705.507 427.529L706.088 443.072L702.493 445.127C696.332 448.648 682.124 459.599 682.816 460.293C683.179 460.656 685.404 459.535 687.762 457.802C697.284 450.8 705.467 445.98 723.206 436.921C733.437 431.696 742.267 427.421 742.83 427.421C743.392 427.421 744.19 429.865 744.602 432.853C746.97 450.017 754.341 463.241 771.078 480.345C778.029 487.448 785.811 493.464 786.726 492.443C786.932 492.214 783.81 487.138 779.791 481.164C775.77 475.189 771.617 469.015 770.561 467.442C759.483 450.954 745.134 428.455 745.134 427.575C745.134 426.499 749.36 424.711 760.028 421.274C762.882 420.355 770.331 418.765 776.582 417.743C782.832 416.72 789.328 415.614 791.019 415.287C793.841 414.739 794.149 415.048 794.788 419.055C796.854 432.021 800.779 441.389 810.001 455.365C815.055 463.026 831.004 480.02 833.137 480.02C835.355 480.02 833.885 475.7 829.054 468.014C826.285 463.612 821.899 456.505 819.306 452.223C816.713 447.94 810.547 438.202 805.604 430.583C800.662 422.965 796.849 416.358 797.13 415.903C797.865 414.712 825.34 413.286 830.144 414.188C833.757 414.867 834.187 415.333 834.223 418.611C834.34 429.127 840.702 443.576 851.193 457.151C855.266 462.421 868.711 475.544 869.368 474.889C869.903 474.355 865.174 465.294 861.602 460.01C859.902 457.494 856.299 451.32 853.597 446.288C850.895 441.257 847.795 435.854 846.708 434.282C844.891 431.653 836.465 415.935 836.465 415.174C836.465 414.473 846.616 415.077 856.372 416.361L866.575 417.702L868.433 425.134C871.48 437.323 880.408 450.295 893.925 462.174C901.892 469.175 904.334 469.964 900.81 464.397C896.869 458.172 880.424 434.799 875.02 427.74C869.4 420.399 868.507 418.274 871.046 418.274C875.232 418.274 885.994 422.064 893.026 426.014C897.394 428.469 903.794 431.583 907.247 432.935C928.49 441.254 933.505 443.035 933.505 442.258C933.505 441.78 930.527 438.632 926.887 435.263ZM924.657 42.737C919.695 43.6243 903.037 49.2021 899.093 51.2992C895.271 53.33 875.265 66.7759 871.856 69.6037L869.002 71.9718L873.569 71.2457C886.956 69.1154 900.863 63.4187 915.239 54.1796C929.272 45.1611 932.406 41.3534 924.657 42.737ZM879.562 115.682C873.754 110.848 865.406 104.6 861.011 101.797C835.851 85.7482 832.584 82.9821 837.322 81.7415C838.807 81.3527 838.652 81.1846 836.718 81.0863C834.23 80.9594 834.414 80.3659 840.906 67.518C849.89 49.7452 854.162 40.2397 856.238 33.4075C857.177 30.3145 858.764 25.8699 859.764 23.5315C860.764 21.1931 861.582 18.4019 861.582 17.3294C861.582 14.393 857.073 19.0034 850.931 28.2208C840.938 43.2184 835.806 56.3098 834.138 71.057C833.491 76.7663 832.425 81.7712 831.768 82.1783C831.111 82.5854 827.66 83.5802 824.1 84.3909C820.541 85.2004 818.281 86.0912 819.079 86.3702C819.877 86.6492 822.138 86.3164 824.101 85.6304C829.813 83.6373 831.328 84.1164 833.924 88.7429C838.717 97.2822 847.901 106.171 858.366 112.399C864.55 116.078 879.268 123.517 884.276 125.494C893.353 129.077 891.818 125.88 879.562 115.682ZM866.719 71.9043C865.463 71.8689 863.665 72.34 862.723 72.9494C861.201 73.9351 861.201 74.0506 862.723 73.9946C863.665 73.9603 865.463 73.4903 866.719 72.9494L869.002 71.9672L866.719 71.9043ZM858.633 74.1832C857.303 74.2381 857.032 74.5091 857.942 74.8739C858.766 75.2043 859.751 75.1632 860.131 74.7835C860.51 74.4039 859.836 74.1341 858.633 74.1832ZM855.303 75.3347C853.14 75.4536 849.498 77.3586 851.307 77.4249C852.249 77.4604 853.79 76.9893 854.732 76.3798C855.674 75.7703 855.93 75.2992 855.303 75.3347ZM846.169 78.2208C841.972 79.1618 841.06 79.8159 843.981 79.793C845.184 79.7827 846.94 79.2533 847.882 78.6141C849.132 77.7668 848.671 77.6605 846.169 78.2208ZM842.081 151.848C839.066 147.76 833.416 139.852 829.526 134.274C825.637 128.696 818.281 119.177 813.182 113.12C798.279 95.4195 796.13 92.4488 797.839 91.908C802.419 90.4581 802.676 90.2774 800.289 90.1916C798.916 90.1425 794.549 90.8251 790.585 91.7113C786.621 92.5963 780.426 93.662 776.814 94.0805C769.47 94.9301 768.824 94.1754 772.487 89.0242C773.716 87.2941 778.248 78.4678 782.558 69.4093C786.868 60.3508 793.381 48.0506 797.033 42.0761C806.123 27.2031 808.117 23.5921 807.552 23.0272C806.603 22.0759 785.961 45.0719 780.803 52.8257C773.632 63.6062 770.349 72.3114 769.011 84.105C768.389 89.589 767.485 94.4716 767.002 94.9553C765.971 95.9878 746.213 98.0415 737.142 98.0586C727.674 98.0769 727.441 97.5784 732.325 87.7641C734.66 83.0713 737.624 76.9172 738.912 74.0895C742.299 66.6455 754.033 44.7438 758.207 38.074C766.711 24.484 768.331 21.2183 765.932 22.5035C761.652 24.7973 742.26 45.3921 738.45 51.6891C731.222 63.636 725.726 81.5048 725.726 93.0606L725.726 96.962L717.972 96.962C702.66 96.962 670.927 91.9903 670.927 89.5902C670.927 88.8812 673.52 85.747 676.688 82.6254C679.857 79.5049 685.346 73.0924 688.886 68.3756C692.426 63.6588 697.25 57.2269 699.605 54.0824C701.96 50.9379 704.854 47.3291 706.036 46.0644C712.576 39.0608 722.277 27.2111 721.471 27.2111C718.518 27.2111 701.774 38.3747 693.857 45.6231C681.101 57.3001 674.686 66.9257 671.37 79.3654C669.92 84.8002 668.576 89.4061 668.383 89.5993C667.846 90.1379 652.241 85.7927 645.512 83.2314C638.008 80.3739 634.785 80.3545 640.155 83.1982C648.655 87.7 669.211 93.0537 692.047 96.7116C697.215 97.5395 697.729 97.8928 697.483 100.438C695.614 119.702 698.294 134.609 706.828 152.42C711.75 162.693 721.913 177.774 723.107 176.578C723.752 175.933 719.285 160.431 715.488 150.133C713.731 145.37 702.488 109.378 700.042 100.691L699.322 98.1318L722.513 98.7859C735.269 99.146 746.284 99.6149 746.99 99.8264C747.715 100.044 748.03 101.502 747.713 103.166C747.402 104.791 747.743 108.481 748.467 111.366C750.44 119.213 762.594 144.138 768.468 152.382C774.044 160.208 784.015 171.602 784.693 170.923C785.95 169.664 774.463 141.138 769.59 133.418C767.85 130.662 764.772 125.062 762.751 120.975C760.729 116.887 757.223 110.789 754.959 107.425C752.695 104.059 750.842 100.915 750.842 100.437C750.842 99.959 753.282 99.2535 756.265 98.8693C761.574 98.1844 785.023 94.1503 790.93 92.9039C793.687 92.323 793.972 92.634 794.666 96.9861C796.287 107.141 808.151 126.839 820.404 139.722C826.682 146.322 846.27 160.852 847.263 159.645C847.429 159.445 845.096 155.936 842.081 151.848ZM815.916 86.7956C814.974 86.751 811.635 87.4313 808.495 88.3061C805.356 89.1808 803.557 89.9332 804.499 89.9767C805.441 90.0213 808.781 89.3409 811.92 88.4662C815.06 87.5914 816.858 86.839 815.916 86.7956ZM788.178 682.556C781.265 678.276 771.623 674.495 764.833 673.401C756.83 672.11 743.944 673.364 736.685 676.14C733.769 677.257 731.216 677.965 731.011 677.717C730.806 677.469 725.929 670.909 720.172 663.137L709.705 649.008L714.005 649.538C740.108 652.757 774.648 656.164 778.01 655.853L782.237 655.462L774.246 651.674C763.211 646.444 746.702 642.381 736.711 642.437C729.324 642.478 716.142 644.426 710.281 646.342C708.468 646.935 706.755 645.783 702.387 641.029C699.319 637.691 691.654 629.701 685.353 623.276C679.052 616.85 674.254 611.236 674.69 610.799C675.126 610.362 683.576 609.335 693.469 608.519C703.361 607.701 719.932 606.252 730.292 605.299C740.653 604.344 750.671 603.532 752.555 603.493L755.979 603.422L752.694 601.64C747.096 598.603 729.566 596.074 714.88 596.184C700.228 596.294 691.251 598.492 677.108 605.427C670.055 608.886 670.561 609.071 658.675 598.681C654.762 595.261 647.458 589.676 642.444 586.268C637.43 582.861 633.311 579.533 633.29 578.872C633.27 578.213 637.235 576.737 642.1 575.595C646.966 574.454 655.058 571.818 660.081 569.739C665.105 567.66 670.756 565.591 672.639 565.142C674.523 564.691 681.368 562.602 687.852 560.498C694.723 558.267 703.436 556.354 708.746 555.911C719.376 555.023 719.152 553.805 707.907 551.352C699.676 549.555 686.352 549.91 674.923 552.23C658.549 555.553 641.34 564.732 632.496 574.86L629.941 577.786L623.891 574.488C606.778 565.16 600.871 562.426 591.265 559.383C585.494 557.556 580.766 555.728 580.755 555.322C580.733 554.384 589.047 549.171 600.489 542.953C610.139 537.708 629.078 530.076 648.094 523.771C665.851 517.884 665.865 517.852 650.377 518.507C635.082 519.154 619.008 522.547 610.15 526.998C601.61 531.291 589.113 541.44 583.709 548.475C580.828 552.224 577.875 555.491 577.145 555.734C576.416 555.978 579.858 557.352 584.793 558.789C593.825 561.417 602.428 565.205 602.428 566.553C602.428 566.952 601.111 569.009 599.501 571.122C597.891 573.236 595.016 578.687 593.109 583.237C587.258 597.2 586.035 603.733 586.208 620.094C586.343 632.888 586.839 636.61 589.771 646.811C591.644 653.33 593.357 658.842 593.576 659.062C594.038 659.525 596.395 636.051 597.316 621.809C597.896 612.831 599.573 598.6 602.569 577.214C603.23 572.497 604.206 568.182 604.739 567.625C606.721 565.552 650.614 591.815 652.234 596.043C652.556 596.884 651.043 600.066 648.873 603.115C643.585 610.547 635.13 627.723 632.83 635.708C626.992 655.984 625.111 674.711 627.965 684.128L629.352 688.701L631.322 681.269C632.407 677.181 634.058 670.749 634.99 666.976C635.923 663.202 637.909 656.513 639.405 652.111C643.8 639.177 647.834 624.373 650.465 611.518C651.816 604.914 653.347 599.053 653.865 598.494C654.395 597.921 658.46 600.6 663.152 604.614C673.521 613.484 693.76 633.295 693.76 634.576C693.76 635.098 692.023 637.971 689.901 640.96C677.386 658.582 671.108 686.047 674.376 708.882C675.182 714.509 676.201 718.702 676.642 718.2C677.547 717.171 680.181 706.037 682.946 691.56C687.906 665.586 694.704 637.817 696.103 637.817C696.574 637.817 700.659 641.785 705.181 646.636C712.847 654.857 715.952 658.863 726.396 674L730.455 679.882L727.355 686.006C717.707 705.072 713.567 734.139 717.609 754.442C718.357 758.2 718.527 757.894 720.474 749.297C721.614 744.27 723.744 735.526 725.209 729.866C728.236 718.166 730.284 702.608 730.289 691.274C730.291 685.855 730.717 683.56 731.72 683.571C734.022 683.595 742.497 697.372 744.389 704.171C745.348 707.612 748.445 716.859 751.271 724.72C754.098 732.582 758.35 744.656 760.72 751.554C764.254 761.843 765.169 763.588 765.812 761.273C767.197 756.298 766.875 745.69 765.077 737.087C761.633 720.599 756.124 709.488 746.19 698.992C741.043 693.555 733.717 683.013 733.717 681.045C733.717 679.25 750.833 680.167 770.817 683.031C781.964 684.63 791.305 685.717 791.574 685.448C791.842 685.18 790.313 683.878 788.178 682.556ZM669.785 281.644C666.332 282.519 657.345 284.298 649.813 285.599C642.282 286.901 631.078 289.297 624.915 290.924C618.754 292.553 613.398 293.572 613.016 293.187C612.347 292.517 620.971 283.133 634.588 269.714C641.855 262.554 647.915 254.817 652.929 246.3C657.101 239.214 662.935 221.663 662.935 216.204C662.935 212.18 662.905 212.204 657.445 220.595C649.2 233.264 639.68 250.686 634.89 261.867C631.282 270.288 629.099 273.436 620.805 282.179C615.408 287.869 610.541 292.517 609.992 292.509C608.831 292.491 609.687 277.262 611.507 265.553C612.197 261.113 612.62 249.021 612.447 238.682L612.132 219.884L608.869 226.744C605.295 234.262 601.958 247.743 600.802 259.344C599.803 269.354 601.749 285.532 604.632 291.194L606.955 295.754L598.697 303.085C594.157 307.117 587.605 312.487 584.139 315.018C577.11 320.151 564.873 327.305 564.242 326.65C564.017 326.416 564.823 321.08 566.033 314.791C567.244 308.502 569.26 296.41 570.513 287.919C571.766 279.429 573.34 269.735 574.013 266.377C574.684 263.02 575.594 256.484 576.036 251.855C576.97 242.067 575.659 242.006 571.668 251.65C570.309 254.933 568.725 258.647 568.145 259.905C562.588 271.966 558.992 303.165 561.384 318.568C562.771 327.501 562.728 328.187 560.666 330.194C555.781 334.949 520.513 353.097 516.159 353.097C514.126 353.097 514.011 354.062 517.361 342.855C520.032 333.916 522.517 322.223 528.274 291.497C529.613 284.347 531.469 275.935 532.398 272.804C533.326 269.673 533.868 266.895 533.603 266.629C532.748 265.773 527.556 274.527 523.35 283.917C514.945 302.681 509.976 329.324 511.577 347.031C512.248 354.436 512.1 355.377 510.105 356.447C505.58 358.872 476.488 368.589 466.002 371.178C456.249 373.586 455.156 373.718 455.156 372.483C455.156 371.801 457.952 363.173 461.368 353.308C464.785 343.443 470.909 325.082 474.976 312.504C479.044 299.926 483.677 286.826 485.272 283.394C486.865 279.961 487.885 276.874 487.536 276.533C486.467 275.488 475.973 287.644 471.983 294.55C461.905 311.99 454.278 340.443 453.423 363.791C453.242 368.73 452.659 373.159 452.127 373.633C450.045 375.489 431.538 377.028 414.196 376.789C404.176 376.651 395.688 376.246 395.333 375.889C394.527 375.081 400.022 360.864 405.247 350.238C407.412 345.836 411.013 337.345 413.251 331.371C415.489 325.396 419.613 315.62 422.416 309.645C429.015 295.583 431.323 289.966 430.744 289.387C429.952 288.594 420.465 298.431 415.618 305.071C413.092 308.53 409.17 314.705 406.902 318.793C402.36 326.98 395.989 347.546 395.109 356.861C394.801 360.136 393.974 365.83 393.275 369.514L392.002 376.212L386.191 375.472C368.88 373.267 358.698 370.224 344.988 363.161C339.298 360.231 336.497 359.233 337.56 360.518C339.599 362.983 353.906 369.816 362.683 372.517C368.227 374.222 368.922 374.772 368.623 377.209C368.131 381.224 370.462 397.76 373.077 408.782C377.329 426.718 387.063 446.527 396.842 457.151L402.632 463.44L397.974 450.29C395.411 443.058 389.759 426.443 385.414 413.366C381.069 400.289 376.232 387.057 374.666 383.96C370.546 375.817 370.781 374.905 376.668 376.184C379.336 376.764 392.548 377.595 406.028 378.032L430.534 378.824L434.225 385.113C436.256 388.572 438.977 393.203 440.271 395.404C448.189 408.864 461.545 423.391 476.277 434.563C484.938 441.134 510.444 454.756 511.71 453.489C512.557 452.639 489.707 430.684 476.847 419.991C463.799 409.142 433.465 380.746 433.465 379.381C433.465 378.962 439.632 377.745 447.17 376.677C459.42 374.94 474.126 371.603 484.491 368.208C488.052 367.042 488.25 367.166 492.978 373.491C499.724 382.517 512.76 395.886 520.23 401.44C523.683 404.007 526.766 406.434 527.08 406.835C530.634 411.361 553.695 422.889 563.663 425.12C574.27 427.493 575.484 426.292 567.608 421.218C563.841 418.791 553.823 411.834 545.346 405.758C536.869 399.683 528.825 393.967 527.47 393.057C514.747 384.514 491.689 367.648 491.689 366.887C491.689 366.357 498.238 363.232 506.245 359.944C514.251 356.654 525.276 351.739 530.746 349.021L540.691 344.078L548.441 352.145C558.177 362.279 566.749 368.413 581.471 375.784C594.274 382.193 613.547 387.728 621.132 387.173L625.832 386.829L620.124 384.573C616.984 383.332 610.819 380.319 606.424 377.878C594.89 371.471 586.662 367.044 569.891 358.225C546.023 345.673 544.822 345.019 543.831 344.03C542.975 343.174 548.631 338.232 550.466 338.232C551.215 338.232 556.054 335.208 571.762 324.924C575.931 322.196 580.075 319.68 580.972 319.335C581.87 318.991 586.936 320.983 592.231 323.762C609.372 332.761 625.98 336.508 644.934 335.654C657.28 335.099 669.785 332.944 669.785 331.373C669.785 330.963 664.777 330.071 658.654 329.393C648.674 328.287 624.431 324.327 596.428 319.23C590.93 318.228 586.183 317.006 585.879 316.513C585.574 316.02 587.248 314.154 589.596 312.365C591.945 310.577 596.846 306.375 600.488 303.029C607.082 296.969 607.131 296.948 612.475 297.863C622.8 299.632 638.929 298.723 646.952 295.92C658.556 291.867 667.713 287.356 672.069 283.548L676.064 280.054L669.785 281.644ZM544.36 150.133C538.742 137.771 527.994 124.205 516.324 114.746C511.854 111.121 497.085 102.642 495.371 102.714C494.915 102.733 495.425 103.264 496.504 103.894C497.582 104.524 501.435 108.999 505.067 113.841C511.71 122.699 530.507 142.09 540.895 150.801C543.97 153.38 546.476 155.315 546.463 155.099C546.449 154.883 545.503 152.648 544.36 150.133ZM537.353 682.984C517.474 672.957 495.37 671.248 477.84 678.382L470.705 681.285L466.07 678.163C459.689 673.865 451.334 669.409 452.157 670.743C452.53 671.347 456.75 674.085 461.535 676.827L470.234 681.812L469.294 686.971C467.913 694.556 468.133 714.951 469.695 724.165C470.929 731.448 479.307 758.437 480.795 759.928C481.135 760.269 481.66 760.303 481.959 760.004C482.782 759.178 480.619 741.412 476.899 718.431C471.217 683.343 471.217 683.48 476.979 687.959C478.477 689.123 480.986 690.696 482.556 691.454L485.41 692.833L482.556 690.349C480.986 688.983 478.705 687.165 477.487 686.308C476.27 685.453 475.648 684.377 476.105 683.917C476.564 683.459 486.808 683.133 498.87 683.192C515.265 683.275 523.898 683.865 533.073 685.532C539.824 686.757 545.346 687.593 545.346 687.388C545.346 687.183 541.75 685.201 537.353 682.984ZM528.798 78.2082C516.552 72.2279 505.57 70.7505 491.679 73.217C478.926 75.481 466.125 81.2086 465.75 84.8197C463.239 108.902 464.642 125.46 470.726 143.559C475.243 156.997 481.285 169.859 481.335 166.141C481.372 163.416 478.769 141.407 476.333 123.833C474.644 111.658 474.077 108.677 470.688 94.1834C469.388 88.6205 469.37 87.1363 470.588 85.9162C473.66 82.8403 517.607 79.9497 529.196 82.0616C533.185 82.7889 536.667 83.1662 536.932 82.9009C537.198 82.6345 533.537 80.5237 528.798 78.2082ZM533.512 755.594C530.565 745.795 526.248 736.858 520.667 729.006C518.543 726.017 516.805 723.261 516.805 722.882C516.805 720.955 503.282 705.733 498.066 701.788C496.049 700.263 495.972 700.311 497.058 702.423C497.705 703.681 499.181 706.768 500.338 709.284C506.74 723.212 522.348 748.766 530.436 758.562C532.044 760.508 533.971 763.081 534.719 764.279C536.719 767.481 536.402 765.208 533.512 755.594ZM488.945 618.379C474.902 618.379 449.64 624.989 438.342 631.62C433.047 634.729 416.34 650.629 416.34 652.56C416.34 653.173 414.928 653.856 413.201 654.079C410.72 654.399 411.821 655.031 418.448 657.094C423.06 658.53 427.079 659.461 427.377 659.161C427.676 658.862 426.378 658.279 424.493 657.863C416.734 656.156 417.96 652.576 427.757 648.334C430.582 647.11 440.905 642.222 450.697 637.472C468.819 628.681 482.682 622.967 491.403 620.698C494.071 620.002 496.255 619.196 496.255 618.906C496.255 618.617 492.966 618.379 488.945 618.379ZM487.76 31.3996C474.281 29.5495 461.014 32.1703 444.881 39.8703C435.366 44.4121 421.053 53.019 419.601 55.0715C418.737 56.2938 417.624 56.0514 400.249 50.8532C392.968 48.675 384.106 46.2417 380.556 45.4458C377.005 44.65 374.1 43.6163 374.1 43.1486C374.1 41.8737 393.593 30.5591 407.207 23.9305C428.897 13.3718 447.769 3.27282 445.877 3.23509C441.13 3.14132 414.964 9.47723 408.138 12.3736C393.953 18.3916 382.865 26.7286 375.028 37.269C371.864 41.5238 369.952 43.1475 368.601 42.7255C363.553 41.1499 338.099 37.4485 328.434 36.8848C322.469 36.536 316.15 36.026 314.392 35.7505C312.472 35.4497 311.473 35.7001 311.89 36.3759C312.273 36.9957 315.566 37.5022 319.208 37.5022C322.851 37.5022 328.272 37.8373 331.254 38.2466L336.675 38.991L335.969 45.965C332.371 81.5128 334.224 93.4779 347.538 120.664C354.974 135.848 357.187 138.511 355.653 130.429C355.083 127.431 354.163 122.147 353.609 118.688C350.859 101.548 345.266 71.7316 343.849 66.6604C342.97 63.5159 341.949 58.3703 341.579 55.2258C341.209 52.0813 340.625 47.2468 340.283 44.4807L339.66 39.4541L346.982 40.2054C351.009 40.6181 357.088 41.6553 360.491 42.5083C363.894 43.3613 372.973 45.5019 380.664 47.2639C396.811 50.963 396.511 50.5399 391.542 62.5691C388.637 69.5968 388.441 71.1405 388.547 86.0992C388.67 103.44 390.459 118.453 393.03 123.724C393.921 125.55 394.649 127.512 394.649 128.085C394.649 130.12 399.513 140.413 400.474 140.413C401.011 140.413 401.226 134.881 400.951 128.121C400.676 121.361 400.171 108.111 399.83 98.6772C399.49 89.2437 398.609 75.2249 397.875 67.5237C397.141 59.8225 396.859 53.203 397.249 52.8131C397.638 52.4232 402.992 53.6581 409.146 55.5586C422.974 59.8282 423.971 60.1141 422.905 59.5172C420.658 58.2583 422.978 56.9284 434.321 52.9686C441.072 50.6131 453.016 46.3503 460.864 43.4974C468.713 40.6444 479.219 36.9259 484.21 35.2336L493.285 32.1577L487.76 31.3996ZM444.187 665.706C441.921 664.759 439.781 664.27 439.43 664.621C439.08 664.973 439.073 665.26 439.414 665.26C439.757 665.26 441.897 666.039 444.171 666.991C446.445 667.943 448.306 668.431 448.306 668.076C448.306 667.721 446.452 666.655 444.187 665.706ZM441.751 115.257C441.598 112.427 440.664 101.739 439.674 91.5054C438.685 81.2726 438.039 71.5407 438.238 69.8804C438.47 67.9571 437.98 66.6627 436.89 66.3174C435.948 66.0201 435.534 66.1596 435.968 66.6284C436.402 67.0972 435.801 69.9147 434.631 72.8888C431.418 81.0508 429.686 95.6573 430.31 109.337C430.79 119.898 431.449 123.091 435.182 132.981C442.121 151.36 442.729 151.506 442.35 134.696C442.172 126.835 441.903 118.087 441.751 115.257ZM437.817 697.277C437.369 683.127 436.747 670.566 436.434 669.363C436.122 668.161 436.332 666.304 436.902 665.238C437.702 663.741 437.3 663.007 435.139 662.021C432.601 660.863 432.458 660.934 433.611 662.784C434.585 664.346 434.315 667.137 432.461 674.679C428.176 692.117 429.574 719.445 435.696 737.894L439.102 748.161L438.867 735.583C438.737 728.665 438.264 711.428 437.817 697.277ZM417.916 581.972C410.03 584.153 395.03 592.19 385.985 599.082C372.768 609.151 357.323 628.653 353.589 639.988L351.941 644.986L332.312 644.182C321.515 643.741 312.423 643.8 312.106 644.315C311.79 644.829 319.059 645.368 328.259 645.512C342.299 645.73 379.52 649.342 383.982 650.919C384.942 651.258 384.821 652.733 383.539 656.322C381.157 662.988 380.203 690.353 382.02 699.859C384.269 711.623 389.863 730.032 392.419 734.079L394.815 737.87L394.181 734.44C393.833 732.553 392.743 720.461 391.757 707.568C390.773 694.676 389.473 679.754 388.869 674.408C388.265 669.062 387.44 661.655 387.034 657.948L386.298 651.209L394.469 652.015C398.963 652.458 402.641 652.585 402.641 652.297C402.641 651.437 388.823 649.291 371.581 647.473C362.68 646.534 355.226 645.594 355.016 645.384C354.281 644.648 408.98 590.944 415.057 586.435C423.074 580.487 423.028 580.558 417.916 581.972ZM369.248 -21.9816C363.924 -20.7215 345.141 -12.3297 340.734 -9.24347C324.796 1.92011 310.702 17.1738 303.899 30.622C301.444 35.4737 300.497 36.3588 297.763 36.3588C292.892 36.3588 273.472 40.6387 272.098 42.0143C270.308 43.8072 272.21 43.5751 285.361 40.3975C291.784 38.8458 299.094 37.4313 301.605 37.2529C304.12 37.0757 306.172 36.3348 306.172 35.6052C306.172 34.8768 310.57 30.5031 315.946 25.8858C321.323 21.2697 330.843 12.7246 337.101 6.89987C347.774 -3.03564 370.204 -20.7912 372.102 -20.8073C372.573 -20.8107 372.958 -21.2749 372.958 -21.8375C372.958 -22.4092 371.322 -22.4733 369.248 -21.9816ZM313.878 241.659C310.896 241.253 304.345 240.455 299.322 239.885C294.299 239.314 286.336 238.32 281.626 237.672C270.992 236.211 261.829 235.535 250.993 235.414C246.387 235.363 242.791 234.848 243.001 234.272C243.397 233.179 255.783 224.108 261.53 220.7C282.275 208.403 297.141 194.748 306.529 179.369C309.767 174.065 312.194 169.505 311.924 169.234C311.434 168.743 297.987 180.226 291.401 186.761C289.479 188.67 284.823 192.767 281.056 195.865C277.288 198.965 270.978 204.864 267.035 208.977C263.091 213.089 257.369 219.026 254.319 222.171C248.874 227.787 237.617 234.92 236.771 233.291C236.535 232.835 237.017 226.802 237.842 219.884C239.317 207.534 241.653 169.385 241.622 158.137L241.607 152.42L238.245 160.314C233.769 170.826 230.252 188.371 230.252 200.192C230.252 208.717 232.488 227.368 234.256 233.605C234.761 235.388 233.825 236.563 230.009 238.935C218.262 246.239 181.796 263.784 180.688 262.667C180.428 262.405 181.393 257.818 182.833 252.472C186.078 240.432 187.603 232.841 190.305 215.31C192.592 200.466 194.336 191.152 195.335 188.439C195.683 187.495 196.675 182.217 197.541 176.708C198.866 168.273 198.87 166.897 197.559 167.987C196.703 168.698 196.003 169.869 196.003 170.589C196.003 171.31 194.719 173.792 193.149 176.106C191.579 178.42 190.291 180.983 190.288 181.803C190.283 182.623 189.573 184.65 188.71 186.308C186.034 191.445 183.597 199.871 180.487 214.738C178.067 226.313 177.466 232.467 177.331 247.097L177.166 265.161L162.895 269.625C135.769 278.112 130.357 279.7 129.946 279.301C129.72 279.081 130.325 276.169 131.292 272.833C132.258 269.496 134.099 261.363 135.382 254.759C136.665 248.156 139.264 236.064 141.16 227.888C143.055 219.712 145.666 208.438 146.961 202.832C148.258 197.228 150.062 190.863 150.97 188.686C155.709 177.328 149.778 183.412 143.1 196.76C134.065 214.82 132.097 220.393 129.1 236.386C126.738 248.994 126.263 254.579 126.564 266.194L126.934 280.487L105.355 285.858C82.269 291.604 71.5638 293.446 71.5638 291.672C71.5638 291.075 71.8767 290.274 72.2591 289.891C72.6416 289.508 74.5069 284.919 76.4044 279.695C78.3017 274.47 81.5383 265.565 83.5968 259.905C85.6551 254.245 89.7502 243.696 92.6968 236.464C98.5968 221.981 106.933 197.948 106.947 195.379C106.959 192.824 90.1464 217.815 85.8458 226.744C77.2789 244.531 70.1938 270.32 70.6106 282.202C70.8697 289.627 69.4221 293.427 66.0668 294.125C56.7818 296.054 32.4454 298.045 24.3751 297.535C9.57604 296.599 7.6317 296.136 7.6317 293.552C7.6317 290.894 23.029 257.661 33.022 238.751C36.8441 231.518 42.735 221.55 46.1131 216.599C49.4912 211.647 52.0657 207.406 51.8351 207.175C51.6033 206.943 47.748 209.844 43.2671 213.622C32.1828 222.968 20.3588 236.928 16.0616 245.745C11.3603 255.389 7.37377 271.862 5.78343 288.205C5.37132 292.45 4.62352 295.924 4.12352 295.924C2.32762 295.924 -12.5 292.533 -20.157 290.373C-24.4519 289.161 -27.4669 288.67 -26.8562 289.281C-25.3218 290.818 -8.43581 295.752 1.92357 297.691C6.6328 298.573 18.0607 299.646 27.3194 300.074L44.1529 300.854L50.6078 312.968C60.7947 332.084 71.839 345.667 89.8381 361.215C99.4451 369.514 119.464 380.971 121.244 379.188C121.527 378.904 104.771 361.598 84.0066 340.73C63.2435 319.863 46.4613 302.171 46.7125 301.417C46.9762 300.624 52.6879 299.203 60.2228 298.054C67.4025 296.96 78.9183 294.746 85.8138 293.135C92.7093 291.525 99.1311 290.212 100.084 290.219C101.038 290.226 103.615 293.441 105.813 297.366C110.643 305.989 128.625 324.344 142.313 334.621C147.625 338.61 156.099 343.816 161.144 346.19C173.835 352.162 191.444 359.001 192.889 358.52C193.548 358.299 189.904 355.182 184.79 351.594C179.676 348.005 171.502 341.845 166.625 337.905C161.748 333.965 153.764 327.924 148.884 324.482C122.582 305.924 103.671 290.274 106.01 288.998C106.843 288.543 111.59 287.336 116.556 286.317C121.523 285.298 132.717 282.108 141.431 279.228C158.761 273.502 158.579 273.491 162.863 280.434C165.352 284.47 182.56 299.817 194.653 308.789C208.297 318.912 231.437 328.908 245.665 330.824C252.65 331.765 252.996 332.055 230.823 318.428C222.033 313.026 209.96 305.271 203.995 301.197C198.029 297.122 186.089 289.252 177.459 283.707C168.83 278.162 161.765 273.276 161.762 272.85C161.757 272.422 164.48 271.28 167.811 270.309C171.143 269.339 179.229 266.216 185.78 263.367C192.329 260.52 198.337 258.19 199.127 258.19C199.918 258.19 203.006 259.925 205.99 262.046C220.482 272.348 244.178 282.079 260.506 284.434C269.487 285.73 285.019 285.829 293.614 284.647L299.322 283.86L291.901 281.917C287.82 280.848 280.371 278.93 275.347 277.652C270.324 276.374 257.737 272.739 247.377 269.573C225.181 262.79 215.477 259.929 208.847 258.214C206.179 257.523 203.995 256.548 203.995 256.046C203.995 255.544 208.489 252.925 213.984 250.225C219.478 247.527 225.515 244.174 227.398 242.776C234.221 237.71 238.037 236.273 240.771 237.739C244.385 239.675 269.139 246.406 275.586 247.205C288.579 248.814 296.471 248.893 305.03 247.498C313.022 246.196 319.301 244.138 319.301 242.82C319.301 242.587 316.86 242.065 313.878 241.659ZM305.131 534.083C285.752 517.714 277.336 513.386 253.656 507.607C243.022 505.012 241.166 505.231 249.871 508.055C253.209 509.137 257.737 511.692 259.935 513.733C267.407 520.671 290.08 534.26 309.24 543.283C320.923 548.784 319.946 546.596 305.131 534.083ZM274.776 475.835C266.928 476.222 257.211 477.335 253.186 478.31C244.62 480.382 233.782 486.615 227.58 493.036L223.194 497.576L212.738 494.005C206.987 492.042 198.811 489.839 194.57 489.111C190.329 488.384 186.6 487.369 186.285 486.858C185.372 485.379 193.94 478.644 204.532 472.517C209.901 469.411 221.095 462.857 229.409 457.95C237.721 453.044 246.707 448.015 249.375 446.773C252.043 445.531 254.227 444.2 254.227 443.814C254.227 442.362 240.771 444.462 232.425 447.218C210.389 454.493 194.544 466.443 183.824 483.876L181.349 487.901L187.82 489.121C197.382 490.924 215.406 495.991 219.932 498.148C223.063 499.641 224.188 501.097 225.357 505.176C227.392 512.277 233.524 526.321 237.587 533.191C242.493 541.485 250.243 550.32 259.348 558.004C274.596 570.87 270.41 562.742 237.257 515.121C227.7 501.393 227.656 501.253 233.208 502.119L237.673 502.815L232.61 500.971L227.546 499.128L236.423 494.653C250.585 487.516 272.64 479.087 280.448 477.828C292.294 475.918 289.937 475.09 274.776 475.835ZM256.226 683.605C254.187 683.488 233.766 693.435 223.076 699.752C209.01 708.065 198.894 715.111 189.724 722.981C181.67 729.894 167.462 738.034 167.462 735.733C167.462 734.896 170.092 729.374 173.306 723.462C176.521 717.551 181.099 708.292 183.48 702.887C185.862 697.482 190.199 688.295 193.119 682.472C196.04 676.648 198.196 671.65 197.913 671.365C197.138 670.589 185.953 682.729 179.308 691.558C171.197 702.336 164.037 721.879 164.037 733.238L164.037 739.053L157.472 741.654C149.998 744.616 134.207 748.665 132.937 747.946C132.472 747.683 132.912 745.566 133.917 743.241C134.92 740.915 138.724 731.552 142.371 722.433C149.971 703.421 160.668 679.299 164.028 673.595C167.631 667.479 166.815 667.852 159.468 675.681C140.508 695.886 128.969 722.009 130.009 742.373L130.358 749.212L122.367 750.59C111.009 752.549 97.1206 753.714 95.6912 752.83C94.8568 752.313 94.9926 750.921 96.1206 748.404C97.0258 746.383 100.05 739.328 102.84 732.724C105.632 726.121 112.323 710.963 117.709 699.042C123.096 687.119 127.504 676.923 127.504 676.383C127.504 675.843 129.269 671.576 131.426 666.9C133.582 662.226 134.96 658.4 134.488 658.4C130.847 658.4 114.987 678.112 107.027 692.531C96.6286 711.362 93.4731 721.453 92.3121 739.585L91.5426 751.592L82.9802 751.967C78.271 752.174 69.7943 751.736 64.1432 750.996C52.5052 749.47 34.0916 745.886 33.1726 744.965C32.3289 744.12 34.6567 739.872 38.9391 734.44C45.1576 726.551 58.613 707.315 63.3314 699.564C65.8202 695.476 71.7304 686.214 76.4637 678.982C81.197 671.75 86.6917 663.339 88.6737 660.292C90.6555 657.246 92.0654 654.541 91.8075 654.281C90.8485 653.32 82.083 660.665 70.993 671.72C53.0007 689.656 39.5612 711.282 33.2617 732.439C31.2855 739.073 29.5307 743.016 28.5523 743.016C24.479 743.016 -16.3428 723.865 -16.3428 721.953C-16.3428 719.316 -1.72403 700.977 17.9134 678.982C36.4593 658.208 51.3716 640.08 50.5724 639.281C49.6842 638.391 39.0384 644.428 32.4499 649.557C23.8237 656.274 8.61349 670.709 0.954314 679.447C-4.6033 685.788 -16.562 707.884 -19.2163 716.716C-19.689 718.288 -20.5851 719.903 -21.2085 720.303C-21.8307 720.704 -17.6523 723.458 -11.9212 726.423C-0.271884 732.449 -0.542392 731.924 -2.60086 744.515C-4.84525 758.238 3.3608 788.983 15.7671 813.338C22.3908 826.342 24.0714 828.937 32.056 838.494C35.2081 842.268 37.9378 845.569 38.1215 845.832C38.3054 846.094 38.7198 846.045 39.0418 845.721C39.3637 845.398 38.3282 842.193 36.7402 838.597C35.1534 835.002 30.9909 823.731 27.4907 813.552C23.9903 803.372 18.9089 789.64 16.1975 783.037C9.34872 766.36 0.781826 740.681 0.781826 736.829C0.781826 734.7 1.26132 733.829 2.20895 734.236C2.99325 734.573 8.7734 737.138 15.0525 739.937C24.8831 744.319 34.5722 747.501 46.5687 750.289C49.2663 750.916 49.6112 751.636 50.2767 758.01C51.1421 766.301 58.0341 780.824 67.5498 794.412C69.7474 797.549 93.8361 821.35 98.9632 825.451C110.071 834.333 129.03 844.672 134.364 844.756C135.312 844.771 124.837 833.334 111.086 819.341C73.8928 781.492 53.2975 757.692 53.2975 752.561C53.2975 751.186 54.1994 750.966 57.5787 751.518C65.8419 752.868 84.7818 754.392 93.6591 754.42L102.626 754.45L112.605 763.312C146.356 793.287 165.715 804.342 193.074 809.262C205.065 811.418 204.858 811.123 187.441 801.271C180.534 797.365 172.828 792.767 170.316 791.056C153.9 779.867 141.814 772.662 125.82 764.533C111.76 757.385 108.099 755.082 109.837 754.474C111.077 754.041 119.648 752.491 128.882 751.031L145.671 748.376L150.947 752.706C162.423 762.124 173.516 768.656 184.267 772.325C203.441 778.868 215.747 780.754 227.04 778.885C231.087 778.214 230.78 778.023 219.048 773.874C199.057 766.805 187.936 762.53 178.878 758.427C174.169 756.295 166.23 753.055 161.235 751.229C156.242 749.402 151.994 747.421 151.796 746.827C151.598 746.232 154.964 744.366 159.277 742.678L167.118 739.612L182.987 744.971C198.827 750.321 198.887 750.331 214.84 750.39C228.724 750.44 231.948 750.084 239.385 747.682L247.948 744.917L234.819 743.465C227.598 742.667 218.608 741.452 214.84 740.766C211.073 740.08 199.899 739.198 190.009 738.804C180.119 738.411 172.035 737.782 172.044 737.408C172.074 736.194 183.803 730.02 192.007 726.9C199.757 723.953 213.783 716.964 220.621 712.642C229.7 706.904 258.136 683.714 256.226 683.605ZM241.053 503.603C238.183 502.5 237.442 502.824 239.757 504.172C240.903 504.84 242.081 505.146 242.374 504.851C242.669 504.557 242.074 503.994 241.053 503.603ZM202.991 557.775C199.982 551.801 194.272 540.995 190.304 533.763C186.336 526.53 179.011 512.69 174.025 503.005L164.963 485.397L171.635 486.062C175.858 486.483 177.192 486.383 175.271 485.788C173.601 485.27 168.72 484.603 164.425 484.305C160.13 484.006 157.901 483.989 159.47 484.266C161.04 484.544 162.723 485.156 163.209 485.626C163.696 486.096 164.61 491.073 165.24 496.686C168.215 523.172 177.753 542.067 199.106 563.779C210.526 575.389 211.278 574.226 202.991 557.775ZM197.955 419.417C193.126 419.417 181.976 422.889 174.975 426.572C160.84 434.009 143.032 455.277 135.305 473.949C132.957 479.622 132.525 480.028 128.721 480.146L124.65 480.271L129.217 481.144C131.728 481.625 138.407 482.279 144.058 482.598L154.333 483.179L145.485 481.995C140.618 481.343 136.638 480.383 136.638 479.86C136.638 478.813 163.014 452.159 173.159 442.955C176.684 439.757 184.293 433.298 190.069 428.599C195.844 423.902 200.57 419.914 200.57 419.737C200.57 419.561 199.394 419.417 197.955 419.417ZM138.065 67.0915C123.989 53.4009 115.436 48.5446 91.5426 40.6799C84.0078 38.1997 77.376 35.7196 76.8052 35.1684C76.2001 34.583 79.0496 32.646 83.655 30.5145C87.9933 28.5055 96.9369 23.5177 103.53 19.4287C110.123 15.3397 118.086 10.8173 121.225 9.37773L126.934 6.76036L122.938 6.75464C115.526 6.74435 102.66 9.65674 96.511 12.7384C88.7947 16.6044 87.0457 18.1378 80.3225 26.9252C77.2583 30.9296 73.9681 34.0718 72.8379 34.0718C71.7283 34.0718 67.1445 32.7855 62.651 31.2132C58.1587 29.6409 53.3489 28.3546 51.9652 28.3546C48.7299 28.3546 32.4945 23.8608 31.1622 22.5961C28.8207 20.3755 59.145 -14.0357 71.88 -23.6087C74.2524 -25.3914 75.9661 -27.0768 75.6897 -27.3536C75.4135 -27.6314 72.1038 -27.0666 68.3364 -26.1003C52.1284 -21.9416 36.2219 -6.08868 28.839 13.2621L25.8433 21.1142L3.61096 21.0181C-8.70398 20.9655 -18.6226 20.4635 -18.6238 19.8941C-18.6249 19.3292 -16.3782 14.6982 -13.6303 9.60299C-10.8834 4.50888 -5.14661 -6.60667 -0.88379 -15.0968C3.38025 -23.587 8.3739 -32.7564 10.2142 -35.4733C12.0546 -38.1901 13.3137 -40.6611 13.0123 -40.963C12.228 -41.7486 -1.54358 -29.8486 -6.88879 -23.7665C-16.2675 -13.0946 -21.2666 0.330688 -21.1776 14.6056L-21.1296 22.2142L-31.0094 24.2187C-41.097 26.2655 -61.0839 31.6934 -67.0193 33.9987C-72.4249 36.098 -69.4349 36.7704 -63.5793 34.7716C-54.7921 31.7735 -54.4393 31.961 -53.6619 40.075C-51.994 57.4567 -38.0089 84.8368 -20.955 104.109C-13.669 112.343 -12.3676 111.046 -17.5129 100.678C-19.931 95.8048 -24.7087 85.6418 -28.129 78.095C-38.5009 55.2144 -38.8811 54.43 -44.7891 43.7912C-47.9332 38.1311 -50.5248 32.9181 -50.5487 32.2069C-50.5909 30.933 -45.5049 29.3402 -34.1124 27.0556C-25.8721 25.4044 -4.51306 22.7585 -3.6637 23.2833C-3.27088 23.5269 -2.94214 29.012 -2.93299 35.4737C-2.92054 45.0902 -2.35645 48.9619 0.173336 56.8141C4.8507 71.3291 12.8639 84.8734 24.2621 97.5337C27.9679 101.65 28.3264 101.822 27.8412 99.2489C26.8057 93.758 21.4856 76.9241 19.7103 73.5211C18.7263 71.6344 17.918 69.5602 17.9134 68.913C17.9043 67.4219 11.8855 53.1882 4.41467 36.9922C1.23852 30.1086 -1.10413 24.062 -0.792483 23.5566C0.308103 21.7728 23.8636 23.5223 33.9901 26.1408L38.0851 27.1997L37.8442 34.9237C37.5006 45.9203 40.4198 60.8608 44.4921 68.9473C46.3928 72.7207 48.7218 77.3517 49.6682 79.2384C53.9916 87.8567 66.8591 103.823 69.4827 103.823C69.9553 103.823 69.3319 101.465 68.0978 98.5823C66.8649 95.6996 65.8556 92.8353 65.8556 92.2167C65.8556 91.5981 63.5825 86.3667 60.8027 80.5911C58.0239 74.8155 53.3809 63.9161 50.4834 56.3693C47.587 48.8224 44.2089 40.1345 42.9783 37.0643C40.1001 29.8845 40.1583 28.3511 43.3081 28.3683C46.4271 28.3866 63.7081 33.1171 69.3889 35.5092C73.3025 37.1569 73.5275 37.5571 74.2068 44.0668C75.0756 52.3935 79.5576 65.2619 85.0626 75.2363C89.1394 82.6208 103.976 99.1826 105.314 97.8425C105.7 97.4571 104.746 94.9141 103.195 92.1926C101.644 89.4701 96.8957 80.5534 92.6432 72.3777C85.3195 58.2971 81.3591 50.8452 77.7538 44.363C75.4431 40.2076 75.6293 37.0608 78.1283 38.0431C79.2266 38.4753 84.1768 40.1184 89.128 41.6941C95.8386 43.8301 99.4713 45.7923 103.399 49.401C109.581 55.0806 120.248 63.2483 127.504 67.8576C135.962 73.2295 150.337 80.8015 150.337 79.8845C150.337 79.4134 144.815 73.6572 138.065 67.0915ZM132.705 548.168C127.576 532.951 122.364 520.431 115.095 505.868C108.515 492.689 105.166 484.785 105.862 484.088C106.464 483.485 110.937 482.622 115.803 482.168C123.844 481.418 123.61 481.386 113.234 481.814C106.955 482.073 99.2486 482.737 96.1091 483.288C92.9697 483.841 88.1485 484.695 85.396 485.185L80.3921 486.078L85.8812 475.903C88.9009 470.307 94.456 460.582 98.2258 454.293C106.984 439.679 123.063 408.871 122.32 408.127C121.609 407.414 96.68 432.711 96.68 434.145C96.68 434.72 94.7049 438.46 92.2915 442.455C86.3276 452.327 81.9094 463.826 79.8498 474.837C78.9057 479.889 77.7573 484.794 77.2983 485.738C76.3895 487.607 76.2423 487.661 59.5765 492.149C53.2975 493.84 43.0855 496.968 36.8829 499.1C30.6804 501.233 25.471 502.829 25.3078 502.647C24.9173 502.213 34.8222 478.054 39.2735 468.586C41.1949 464.498 45.4201 453.95 48.6614 445.145C51.9035 436.34 55.3741 426.938 56.3753 424.252C57.3755 421.564 57.9247 419.097 57.5958 418.768C56.735 417.905 51.0633 425.468 44.9726 435.597C32.8347 455.784 26.2783 471.864 25.2279 484.022C24.9026 487.796 24.1136 493.971 23.4754 497.744L22.3155 504.605L8.02109 512.037C0.158545 516.125 -6.53604 519.889 -6.85574 520.404C-8.24392 522.629 -5.98696 522.137 -0.244409 518.963C20.6797 507.4 40.4906 498.316 44.7809 498.316C45.5971 498.316 46.5995 499.987 47.006 502.032C48.6042 510.061 53.5498 526.703 56.4359 533.763C63.1797 550.262 85.6609 579.501 91.6019 579.501C93.4651 579.501 93.4754 579.352 91.7435 577.436C90.7173 576.301 83.0179 562.021 74.6338 545.705C66.2495 529.389 56.7613 511.798 53.5498 506.614C48.4044 498.307 47.9409 497.068 49.6477 496.18C54.0167 493.905 100.986 483.155 102.489 484.084C102.884 484.33 103.556 487.503 103.981 491.137C106.431 512.092 116.214 538.847 128.035 556.919C132.523 563.78 140.081 572.599 140.026 570.913C140.007 570.291 136.712 560.055 132.705 548.168ZM0.201876 613.087C-23.5706 615.885 -51.3616 633.071 -65.2588 653.569C-69.1359 659.286 -70 661.529 -70 665.869L-70 671.175L-61.7232 663.13C-47.255 649.067 -12.8562 623.644 1.92246 616.092C4.43515 614.809 6.49008 613.441 6.49008 613.052C6.49008 612.664 3.6611 612.68 0.201876 613.087ZM-36.55 711.806C-45.642 706.52 -53.8263 700.577 -64.1811 691.739C-67.3811 689.008 -70 687.36 -70 688.078C-70 689.766 -65.8354 693.45 -54.8333 701.495C-48.2403 706.316 -46.1512 708.456 -46.7437 709.782C-47.1831 710.765 -48.8283 716.201 -50.4015 721.862C-55.3356 739.625 -54.2077 776.536 -48.1114 796.758C-46.1352 803.316 -36.6355 823.058 -35.4562 823.058C-34.8558 823.058 -34.7131 822.157 -35.1377 821.057C-35.5635 819.957 -36.6503 811.852 -37.5523 803.047C-38.4554 794.242 -39.7157 783.437 -40.3516 779.034C-43.0127 760.638 -45.7538 713.333 -44.2948 710.969C-43.8712 710.283 -40.5754 711.474 -36.1332 713.919C-25.5296 719.755 -25.8732 718.012 -36.55 711.806ZM-44.0231 -33.694C-49.6307 -30.0384 -53.332 -26.2799 -60.3977 -17.0647C-69.2089 -5.57299 -70 -3.39241 -70 9.41088L-70 20.802L-61.037 3.10471C-56.1074 -6.6284 -49.1719 -19.4145 -45.6249 -25.3079C-42.0778 -31.2013 -39.1757 -36.2096 -39.1757 -36.4383C-39.1757 -36.6682 -41.3573 -35.4321 -44.0231 -33.694Z" fill="url(#paint0_linear_5730_1282)"/>
<defs>
<linearGradient id="paint0_linear_5730_1282" x1="-70" y1="403" x2="1171.5" y2="403" gradientUnits="userSpaceOnUse">
<stop stop-color="white" stop-opacity="0.56"/>
<stop offset="1" stop-color="white" stop-opacity="0.16"/>
</linearGradient>
</defs>
</svg>
