<svg width="512" height="512" viewBox="0 0 512 512" fill="none" xmlns="http://www.w3.org/2000/svg">
<rect width="512" height="512" rx="64" fill="#C9D3F8"/>
<path d="M98 108.951C98 113.5 102.58 118.959 108.991 121.233C114.945 123.508 121.357 129.421 123.646 133.97C128.226 144.433 131.89 325.025 127.768 357.323C125.02 378.248 122.73 382.797 111.281 389.165C103.954 393.714 98 400.083 98 403.722C98 409.635 107.617 410.545 157.536 411C212.035 411 217.072 410.545 217.072 402.812C217.072 397.808 212.493 393.714 205.623 391.894C188.22 387.346 184.099 375.063 181.351 318.657L179.061 267.709L192.342 262.25C206.997 256.791 311.872 258.156 321.49 264.07C328.359 268.618 329.275 356.413 322.406 373.699C320.116 380.522 312.788 387.8 306.377 390.985C299.965 393.714 294.928 399.173 294.928 403.267C294.928 409.635 302.713 410.545 354.464 410.545C408.504 410.545 414 409.635 414 402.357C414 397.808 408.962 392.349 402.551 390.075C396.139 387.8 388.812 380.522 386.522 374.154C381.484 361.417 380.11 153.531 384.69 136.7C386.064 131.241 393.391 124.872 400.719 122.143C408.962 119.414 414 114.41 414 109.406C414 102.128 408.962 101.218 354.464 101.218C296.759 101.218 294.928 101.673 294.928 110.771C294.928 118.049 298.591 121.233 308.209 123.053C325.154 126.692 327.901 138.974 326.07 194.471L324.696 233.137L258.748 234.502C211.119 235.411 191.426 234.047 186.388 229.953C180.435 225.404 179.519 215.851 181.809 179.459C184.099 133.06 188.22 123.053 204.707 120.778C210.203 119.868 215.241 115.774 216.157 111.226C217.53 104.402 212.951 103.492 170.359 102.583C144.255 102.583 117.693 101.673 110.823 101.218C101.206 100.308 98 102.128 98 108.951Z" fill="#1E1E1E"/>
</svg>
