<svg width="215" height="56" viewBox="0 0 215 56" fill="none" xmlns="http://www.w3.org/2000/svg">
<path d="M15.2284 0.246468C14.7333 0.470909 14.362 0.816204 14.0437 1.35141C13.6369 2.02473 13.4778 2.12832 12.8412 2.21465C11.4619 2.38729 10.5424 3.38865 10.5424 4.70077C10.5424 5.66759 10.896 6.46177 11.5503 6.96245C11.9393 7.25595 11.9747 7.3768 11.8156 7.77389C11.568 8.41269 11.5857 9.32772 11.8863 9.98378C12.0985 10.5017 12.9473 11.365 13.3894 11.5203C13.4778 11.5376 13.301 12.3145 12.965 13.2296C12.6467 14.1273 12.24 15.5085 12.0631 16.2854C11.8686 17.0623 11.6741 17.7011 11.621 17.7011C11.5503 17.7011 11.4619 17.4594 11.3912 17.1486C11.3381 16.8551 10.9844 16.0264 10.6308 15.3013C9.39294 12.7807 6.988 10.9333 3.38059 9.74207C1.50616 9.13781 1.27627 9.12054 1.13481 9.65575C0.993339 10.191 1.29396 12.9533 1.64762 14.3518C2.28422 16.9933 3.69889 19.5485 5.16661 20.7225C6.51055 21.7929 7.80143 22.259 9.69355 22.3281L11.3912 22.3971L11.7979 24.0545C12.0631 25.1422 12.1339 25.7292 12.0101 25.7983C11.904 25.8673 10.7722 26.0573 9.48135 26.2299C6.4575 26.627 3.50438 27.3521 2.17812 28.0427C0.144538 29.0613 -0.120712 29.4757 0.0384378 31.3057C0.462838 36.0363 1.64762 39.5928 3.91109 42.9076C5.04283 44.5823 7.8368 47.2584 9.46367 48.2597L10.7369 49.0366V50.4696C10.7546 52.714 11.2851 53.4219 13.6369 54.475C16.2541 55.6318 19.8792 56.1152 24.7067 55.9771C30.1532 55.8217 33.8137 54.9239 35.7588 53.2492C36.5369 52.5932 36.8198 51.6436 36.696 50.2279L36.5899 49.1747L38.0753 48.1907C43.0444 44.8931 46.4573 38.954 47.1823 32.3071C47.4122 30.0972 47.3414 29.6656 46.6164 28.9405C45.4139 27.7492 42.9206 26.886 38.5705 26.1436C37.2796 25.9364 36.2186 25.6947 36.2186 25.6084C36.2186 25.5393 37.5802 22.846 39.2248 19.6175C42.1425 13.9547 42.2663 13.7302 43.0267 13.3159C44.0346 12.7289 44.5475 11.9002 44.6536 10.6571C44.9365 7.60125 42.6907 5.58127 39.879 6.37545C39.3839 6.51357 38.7296 6.84159 38.4467 7.10057C37.8808 7.63577 37.2973 8.77525 37.2796 9.39678C37.2796 9.8284 36.6076 10.8643 30.6837 19.6002L26.811 25.2976H24.2293C22.7969 25.2976 20.0206 25.3839 18.0401 25.4875C14.8217 25.6602 14.0613 25.6429 14.3089 25.3839C14.362 25.3494 15.14 25.2285 16.0596 25.125C19.9853 24.6588 22.0542 23.9682 23.7165 22.5353C25.3787 21.1023 26.758 18.5816 27.5361 15.6294C28.0312 13.6957 28.0312 13.4195 27.43 13.2813C26.7934 13.126 24.1585 13.4713 22.6555 13.9201C18.7297 15.0941 15.5467 18.15 14.0967 22.1036C13.9022 22.6734 13.69 23.2604 13.6369 23.3985C13.4601 23.8819 13.2656 22.846 13.2479 21.3095C13.2302 19.2549 13.6016 17.3558 14.6449 14.1791C15.4583 11.762 15.5998 11.4685 16.0596 11.2268C16.537 10.9851 16.6431 10.9851 17.1382 11.2441C17.8986 11.6239 19.3664 11.5894 19.9322 11.175C20.9932 10.3981 21.453 9.01696 21.0286 7.84295C20.8518 7.35954 20.8694 7.25595 21.1701 7.04877C21.6652 6.72074 22.1957 5.80571 22.3372 5.08059C22.5317 4.06197 21.9304 2.9225 20.9755 2.50814C20.5511 2.31823 19.9676 2.16285 19.6847 2.16285C19.2426 2.16285 19.0834 2.042 18.8005 1.54132C18.0401 0.177406 16.5724 -0.3578 15.2284 0.246468ZM17.0498 2.24918C17.2974 2.629 17.3151 2.78439 17.1206 3.45771C16.926 4.13103 16.8376 4.23462 16.4132 4.23462C16.0242 4.23462 15.8827 4.13103 15.7236 3.69941C15.4583 2.95703 15.476 2.66353 15.812 2.19738C16.1657 1.69671 16.6962 1.71397 17.0498 2.24918ZM14.2559 4.33821C14.7333 4.66624 14.7333 4.89068 14.2912 5.42589C13.9552 5.80571 13.9022 5.82298 13.2833 5.59854C12.3637 5.25324 12.1515 4.82162 12.682 4.39C13.1772 3.99291 13.7254 3.97565 14.2559 4.33821ZM20.0914 4.33821C20.3036 4.47633 20.4804 4.71804 20.4804 4.83889C20.4804 5.14965 19.8261 5.58127 19.1365 5.71939C18.6767 5.80571 18.5883 5.73666 18.3761 5.25324C18.1462 4.7353 18.1462 4.68351 18.5352 4.37274C19.0127 3.99292 19.5609 3.97565 20.0914 4.33821ZM17.1913 5.71939C17.6157 6.11648 17.5273 6.58263 16.9437 7.20415L16.4132 7.77389L15.8827 7.20415C15.2461 6.5481 15.2108 6.08195 15.7413 5.71939C16.2541 5.37409 16.8376 5.37409 17.1913 5.71939ZM15.0162 8.20551L15.6882 8.87883L15.2461 9.22413C14.2735 9.96652 13.5839 9.7766 13.5839 8.79251C13.5839 8.29184 13.9376 7.51492 14.1674 7.51492C14.2559 7.51492 14.6449 7.82569 15.0162 8.20551ZM19.0304 7.94654C19.3133 8.53354 19.2956 9.10328 19.0127 9.4831C18.8182 9.72481 18.7121 9.74207 18.27 9.58669C17.9694 9.4831 17.598 9.27593 17.4389 9.12054C17.1559 8.87884 17.1736 8.82704 17.6511 8.34363C17.9517 8.06739 18.1816 7.75663 18.1816 7.6703C18.1816 7.32501 18.8535 7.54945 19.0304 7.94654ZM42.337 8.61987C42.8322 9.10328 42.9383 9.32772 42.9383 9.94925C42.9383 10.9161 42.4431 11.7275 41.5766 12.1591C40.94 12.4699 40.6571 12.9706 35.5466 22.9496L30.1709 33.412H26.8287C24.9897 33.412 23.4866 33.3775 23.4866 33.3257C23.4866 33.2739 26.9171 28.2326 31.0904 22.1036C36.9436 13.5403 38.6943 10.847 38.6943 10.4499C38.6943 9.06875 39.6668 8.03286 40.94 8.03286C41.612 8.03286 41.8242 8.11919 42.337 8.61987ZM4.67148 12.1764C7.2002 13.3677 8.73865 15.0941 9.69355 17.8047C9.88807 18.3572 10.0472 18.8406 10.0472 18.8751C10.0472 18.9269 9.25147 18.2018 8.27888 17.2695C7.3063 16.3372 6.4575 15.6121 6.42213 15.6639C6.15688 15.9056 7.32398 18.2881 8.33193 19.5657C8.72097 20.0664 9.0039 20.498 8.96853 20.5325C8.84475 20.6707 7.55387 20.1527 6.86421 19.7038C5.94468 19.1168 4.81295 17.7011 4.17634 16.3545C3.41596 14.7143 2.69094 11.4858 3.09766 11.4858C3.15071 11.4858 3.87573 11.7966 4.67148 12.1764ZM25.7854 15.3704C25.7854 15.8193 24.5829 18.5644 24.0171 19.4276C23.3628 20.4289 22.2487 21.4476 21.1701 22.0691C20.4804 22.4662 17.4742 23.3122 17.4742 23.105C17.4742 23.0705 18.4468 22.0864 19.6316 20.9469C20.8341 19.7902 21.7182 18.8233 21.5945 18.7888C21.1524 18.6334 18.7651 20.0146 16.5547 21.672C15.9004 22.1727 15.9358 21.9828 16.7846 20.6016C17.8633 18.8233 19.6493 17.1832 21.3999 16.3372C23.6104 15.2668 25.7854 14.8006 25.7854 15.3704ZM25.4317 27.2831C25.4317 27.3348 25.1311 27.7837 24.7598 28.2844C24.3884 28.7851 23.4158 30.1317 22.6201 31.2885L21.1347 33.412H20.2152H19.2779L18.1285 31.8927C16.8023 30.1663 15.3522 27.9218 15.3522 27.5938C15.3522 27.4557 15.7589 27.3694 16.6431 27.3176C18.9066 27.214 25.4317 27.1967 25.4317 27.2831ZM13.5839 28.5261C13.8315 28.975 14.6095 30.2008 15.3169 31.2194C16.0242 32.2553 16.5724 33.1358 16.5193 33.1876C16.3779 33.343 10.0119 32.7387 7.74838 32.3589C4.40623 31.8064 1.73604 30.9604 1.73604 30.4598C1.73604 30.2181 3.73426 29.3376 5.09588 28.9923C6.52823 28.6297 11.6918 27.7492 12.5229 27.7319C13.0888 27.7147 13.1772 27.7837 13.5839 28.5261ZM40.0559 28.388C43.4511 29.0786 45.4139 29.8555 45.4139 30.5461C45.4139 30.9086 43.5395 31.6165 41.3468 32.0999C39.437 32.497 36.5369 32.8941 33.6015 33.1703L32.3106 33.2739L33.7429 30.477L35.1753 27.6801L36.3954 27.7837C37.0674 27.8528 38.7119 28.129 40.0559 28.388ZM7.0941 34.0163C11.4973 34.7414 15.0339 35.0004 22.0012 35.0867C32.5935 35.2421 40.4449 34.5342 44.3529 33.084C44.8834 32.8941 45.3255 32.756 45.3432 32.7732C45.3609 32.7905 45.2725 33.5156 45.1133 34.3616C44.1054 40.2143 40.0912 45.5146 34.7155 48.1216C29.6581 50.5732 20.7457 50.9703 14.8217 49.0021C10.0119 47.3965 6.10383 43.9263 3.84036 39.213C3.06229 37.5728 2.30191 35.104 2.14276 33.7401L2.03666 32.7732L3.30986 33.1876C3.99951 33.412 5.7148 33.7919 7.0941 34.0163ZM17.3858 51.2983C18.9066 51.6091 20.3743 51.7472 22.6024 51.8335C27.3415 51.9889 31.0551 51.4537 34.6801 50.0552C34.9631 49.9517 34.9984 50.038 34.9454 50.7804C34.8923 51.5745 34.8393 51.6609 34.0259 52.1961C32.1337 53.4219 28.4202 54.1297 23.7518 54.1297C18.323 54.1297 14.415 53.3701 12.9296 52.0062C12.6113 51.7299 12.5229 51.4537 12.5229 50.8322V50.0207L13.9022 50.4523C14.6449 50.694 16.2187 51.0739 17.3858 51.2983Z" fill="#1E1E1E"/>
<path d="M87.5224 27.4002C85.5873 27.9361 84.0512 29.3655 83.333 31.2712C81.8966 35.1026 83.3529 39.1921 86.7045 40.7008C88.0012 41.2963 90.834 41.2963 92.1108 40.7008C96.3401 38.7553 97.4772 32.641 94.2853 29.0478C92.9487 27.5193 89.7966 26.745 87.5224 27.4002ZM90.4151 28.7104C91.9911 29.4449 92.9088 30.9338 93.3078 33.3954C93.9262 37.2267 91.9512 40.3633 89.1982 39.9464C88.48 39.8472 88.081 39.6288 87.3429 38.8943C84.9689 36.5915 84.6896 31.9859 86.7643 29.6235C87.8815 28.353 89.0186 28.0751 90.4151 28.7104Z" fill="#1E1E1E"/>
<path d="M121.736 27.4203C119.601 27.9563 118.065 29.207 117.187 31.073C116.828 31.8472 116.749 32.3832 116.749 34.289C116.749 36.2146 116.808 36.7109 117.187 37.505C117.806 38.8549 119.162 40.1056 120.559 40.6415C121.696 41.0783 121.935 41.0981 127.621 41.0584C130.853 41.0386 133.586 40.9393 133.686 40.8401C133.825 40.7011 134.364 38.5174 134.404 38.0013C134.424 37.5844 133.646 37.9616 133.247 38.577C132.648 39.4901 131.751 39.8475 130.035 39.8475C128.04 39.8475 128 39.7681 128.06 36.8896L128.12 34.5868L129.097 34.5272C130.554 34.428 130.992 34.6066 131.332 35.3808C131.491 35.758 131.751 36.0757 131.91 36.0757C132.15 36.0757 132.209 35.6985 132.209 33.9912C132.209 31.9862 132.189 31.9068 131.83 32.1053C131.611 32.2046 131.372 32.4825 131.312 32.7009C131.152 33.1972 130.613 33.3361 129.197 33.2567L128.12 33.1972L128.06 31.212C128.04 30.1201 128.1 29.0879 128.2 28.929C128.459 28.5519 131.172 28.393 131.79 28.7107C132.01 28.8496 132.389 29.3062 132.608 29.7231C132.908 30.2988 133.147 30.5172 133.466 30.5172C133.905 30.5172 133.925 30.4775 133.785 29.1673C133.686 28.4327 133.626 27.7379 133.626 27.6188C133.606 27.4402 132.628 27.3806 130.175 27.4203C128.279 27.4203 125.826 27.3806 124.728 27.3012C123.312 27.2019 122.434 27.2218 121.736 27.4203ZM125.227 29.0283L125.726 29.5246V34.3089V39.0931L125.167 39.5696C124.748 39.9269 124.369 40.046 123.711 40.046C121.058 40.046 119.442 37.7432 119.442 33.9714C119.442 31.1723 120.24 29.4849 121.935 28.6908C123.033 28.1747 124.509 28.3335 125.227 29.0283Z" fill="#1E1E1E"/>
<path d="M140.508 27.4797C136.778 28.6113 134.863 32.9985 136.319 37.1277C136.758 38.418 138.314 40.0657 139.63 40.6613C140.468 41.0186 141.047 41.1178 142.483 41.1377C144.598 41.1377 145.615 40.7605 147.032 39.4702C149.426 37.2666 149.904 32.6015 147.989 29.8222C146.453 27.5591 143.361 26.6062 140.508 27.4797ZM144.099 28.9289C145.536 29.8222 146.413 31.9662 146.433 34.5866C146.433 37.2865 145.655 38.954 144.099 39.6687C141.965 40.6414 140.089 39.5297 138.952 36.6512C138.334 35.1028 138.354 32.3831 138.972 31.0133C139.531 29.7825 140.069 29.187 141.087 28.6907C142.024 28.2539 143.122 28.3532 144.099 28.9289Z" fill="#1E1E1E"/>
<path d="M167.18 27.3807C167.061 27.5197 166.362 29.3262 165.624 31.4106C163.19 38.2396 162.731 39.2918 161.973 39.9866C161.574 40.3439 161.335 40.7012 161.395 40.7806C161.475 40.86 162.492 40.9196 163.629 40.9196C165.365 40.9395 165.724 40.8799 165.724 40.6417C165.724 40.4829 165.445 40.1851 165.105 39.9866C164.547 39.6689 164.487 39.5697 164.567 38.8947C164.627 38.4977 164.826 37.8227 164.986 37.4058L165.305 36.6515L167.559 36.711L169.794 36.7706L170.173 37.9617C170.592 39.3712 170.492 39.9866 169.814 40.1652C169.534 40.2248 169.315 40.4233 169.315 40.6218C169.315 40.8997 169.654 40.9395 172.108 40.9395C174.641 40.9395 174.901 40.8997 174.901 40.5821C174.901 40.4035 174.781 40.2446 174.621 40.2446C174.462 40.2446 174.083 40.0263 173.784 39.7881C173.345 39.391 172.866 38.2198 171.21 33.2767L169.175 27.2418L168.277 27.1822C167.719 27.1425 167.3 27.2219 167.18 27.3807ZM168.497 32.6017C168.956 33.9517 169.315 35.1626 169.315 35.2817C169.315 35.4008 168.637 35.4802 167.519 35.4802C166.542 35.4802 165.724 35.4008 165.724 35.3214C165.724 34.5869 167.36 30.1203 167.639 30.1203C167.659 30.1203 168.058 31.232 168.497 32.6017Z" fill="#1E1E1E"/>
<path d="M66.7749 27.7784C66.7749 27.9769 66.9744 28.2152 67.2537 28.3144C67.513 28.4137 67.7923 28.6718 67.8921 28.8703C68.0916 29.3269 68.2512 37.208 68.0716 38.6175C67.9519 39.5306 67.8522 39.7292 67.3534 40.0071C67.0342 40.2056 66.7749 40.4835 66.7749 40.6423C66.7749 40.9004 67.1938 40.9401 69.3683 40.96C71.7423 40.96 71.9618 40.9401 71.9618 40.6026C71.9618 40.3843 71.7623 40.2056 71.463 40.1262C70.705 39.9277 70.5254 39.3917 70.4057 36.9301L70.306 34.7067L70.8845 34.4685C71.5229 34.2302 76.0913 34.2898 76.5103 34.5479C76.8095 34.7464 76.8494 38.5778 76.5502 39.3321C76.4504 39.6299 76.1312 39.9475 75.8519 40.0865C75.5726 40.2056 75.3532 40.4438 75.3532 40.6225C75.3532 40.9004 75.6923 40.9401 77.9466 40.9401C80.3007 40.9401 80.5401 40.9004 80.5401 40.5828C80.5401 40.3843 80.3206 40.146 80.0413 40.0468C79.762 39.9475 79.4428 39.6299 79.3431 39.352C79.1236 38.7961 79.0638 29.7239 79.2633 28.9894C79.3231 28.7512 79.6423 28.4732 79.9615 28.3541C80.3206 28.235 80.5401 28.0166 80.5401 27.7983C80.5401 27.4806 80.3206 27.4409 77.9466 27.4409C75.433 27.4409 75.3532 27.4608 75.3532 27.8578C75.3532 28.1755 75.5128 28.3144 75.9317 28.3938C76.6699 28.5526 76.7896 29.0886 76.7098 31.5105L76.6499 33.1979L73.7772 33.2575C71.7024 33.2972 70.8446 33.2376 70.6252 33.059C70.3658 32.8605 70.3259 32.4436 70.4257 30.8554C70.5254 28.8306 70.705 28.3938 71.4231 28.2946C71.6625 28.2549 71.882 28.0762 71.9219 27.8777C71.9817 27.5799 71.7822 27.5402 69.9269 27.5005C68.7898 27.5005 67.6327 27.4608 67.3335 27.4409C66.9145 27.4012 66.7749 27.4806 66.7749 27.7784Z" fill="#1E1E1E"/>
<path d="M98.4946 27.7777C98.4946 27.9564 98.7339 28.2343 99.0531 28.3733L99.5918 28.6512L99.5519 31.5098C99.5519 33.098 99.4721 35.5 99.3923 36.85L99.2526 39.3116L98.5744 39.9865C98.1953 40.3637 97.916 40.721 97.9759 40.8004C98.0756 40.9791 102.085 40.9394 102.085 40.7607C102.085 40.7012 102.085 40.5622 102.085 40.463C102.085 40.3439 101.846 40.1453 101.547 40.0064L100.988 39.7483L100.928 36.8698C100.849 33.7531 101.028 30.7158 101.268 30.7158C101.367 30.7158 102.085 32.3833 102.883 34.428C105.397 40.8799 105.337 40.7409 105.976 40.7409C106.534 40.7409 106.594 40.6416 107.971 37.1477C108.729 35.1626 109.626 32.8598 109.926 32.026C110.245 31.1922 110.564 30.557 110.664 30.6165C110.863 30.7356 111.162 38.855 110.983 39.4108C110.903 39.6292 110.584 39.9071 110.265 40.0262C109.866 40.1453 109.666 40.3637 109.666 40.6218C109.666 40.9791 109.806 40.999 112.16 40.9791C114.933 40.9394 115.112 40.8203 114.055 39.8476C113.556 39.3711 113.457 39.1329 113.457 38.319C113.457 37.8028 113.357 35.5 113.257 33.2171C113.157 30.6562 113.157 28.9291 113.277 28.7108C113.377 28.5122 113.656 28.3336 113.896 28.2939C114.175 28.2542 114.374 28.0755 114.414 27.8174C114.474 27.4204 114.394 27.4005 112.379 27.4204L110.285 27.4402L108.848 31.3113C107.352 35.3809 106.774 36.6713 106.494 36.6713C106.295 36.6713 105.916 35.8177 103.921 30.815L102.564 27.4402H100.529C98.7539 27.4402 98.4946 27.48 98.4946 27.7777Z" fill="#1E1E1E"/>
<path d="M151.56 27.7976C151.56 27.9961 151.72 28.1947 151.919 28.2741C152.957 28.6314 152.957 28.6314 152.957 33.9119C152.957 36.6515 152.877 39.0535 152.757 39.3513C152.657 39.6292 152.338 39.9469 152.059 40.0461C151.78 40.1454 151.56 40.3836 151.56 40.5821C151.56 40.8997 151.799 40.9395 154.153 40.9395C156.508 40.9395 156.747 40.8997 156.747 40.5821C156.747 40.3836 156.527 40.1454 156.268 40.0461C155.53 39.7682 155.35 39.2521 155.35 37.2867V35.4802H156.607C160.118 35.4802 162.413 33.5943 162.054 30.9937C161.854 29.5446 161.196 28.5321 160.039 27.9564C159.081 27.4601 158.921 27.4403 155.311 27.4403C151.839 27.4403 151.56 27.4601 151.56 27.7976ZM158.084 28.8696C159.36 29.4652 159.919 31.5099 159.181 32.8797C158.682 33.7928 157.705 34.2891 156.408 34.2891H155.35V31.5496C155.35 30.0409 155.41 28.7307 155.49 28.6711C155.749 28.413 157.385 28.5321 158.084 28.8696Z" fill="#1E1E1E"/>
<path d="M174.981 27.5795C174.941 27.639 174.841 28.1353 174.781 28.6713C174.722 29.1874 174.642 29.8624 174.602 30.1602C174.462 31.0336 175.121 30.855 175.859 29.8227C176.218 29.3264 176.716 28.8301 177.016 28.7309C177.674 28.4728 178.831 28.4728 178.991 28.7309C179.051 28.8301 179.13 31.1925 179.13 33.9717C179.17 38.3589 179.13 39.0736 178.831 39.5103C178.652 39.7883 178.312 40.0662 178.093 40.1456C177.874 40.2051 177.694 40.4235 177.694 40.622C177.694 40.9595 177.913 40.9794 180.387 40.9595C182.821 40.9397 183.08 40.8999 183.08 40.5823C183.08 40.3838 182.921 40.1853 182.741 40.1059C181.684 39.7287 181.684 39.7883 181.684 34.071V28.7309L182.203 28.6117C182.901 28.4331 184.058 28.6514 184.497 29.0286C184.676 29.2073 184.996 29.6639 185.175 30.0411C185.355 30.4182 185.634 30.716 185.833 30.716C186.113 30.716 186.173 30.5374 186.113 29.4852C186.013 27.2023 186.671 27.4405 180.467 27.4405C177.495 27.4405 175.021 27.5 174.981 27.5795Z" fill="#1E1E1E"/>
<path d="M187.469 27.7976C187.469 27.9961 187.709 28.2343 188.008 28.3534C188.307 28.4725 188.626 28.671 188.706 28.7901C188.926 29.1276 188.906 38.9344 188.686 39.5101C188.586 39.788 188.267 40.0461 187.988 40.1255C187.649 40.2049 187.469 40.3835 187.469 40.6615C187.469 41.0387 187.569 41.0585 190.103 40.9989C192.896 40.9195 193.394 40.7409 192.257 40.1453C191.419 39.7086 191.26 39.1726 191.26 36.6713V34.5074L192.157 34.3685C193.314 34.2097 197.065 34.3486 197.424 34.567C197.643 34.706 197.683 35.2022 197.584 36.9691C197.464 39.4307 197.304 39.9468 196.546 40.1255C196.247 40.2049 196.048 40.3835 196.048 40.6218C196.048 40.9592 196.227 40.9989 198.741 40.9592C201.035 40.9394 201.434 40.8997 201.394 40.6416C201.354 40.4828 201.095 40.2247 200.796 40.0858C200.436 39.927 200.177 39.5895 200.037 39.0932C199.818 38.2793 199.798 29.7232 200.017 28.9291C200.097 28.6313 200.337 28.3931 200.636 28.3336C200.935 28.274 201.155 28.0556 201.194 27.8373C201.254 27.4601 201.115 27.4402 198.641 27.4402C196.127 27.4402 196.028 27.4402 196.087 27.8373C196.127 28.0755 196.327 28.2542 196.586 28.2939C196.826 28.3336 197.125 28.4725 197.244 28.6313C197.504 28.949 197.743 32.0458 197.564 32.7803L197.424 33.3163L194.392 33.2568L191.359 33.1972L191.3 31.2319C191.24 29.1078 191.499 28.3336 192.257 28.3336C192.477 28.3336 192.656 28.1946 192.656 28.0358C192.656 27.877 192.656 27.6983 192.656 27.6388C192.656 27.5792 191.499 27.5196 190.063 27.4799C187.689 27.4402 187.469 27.4799 187.469 27.7976Z" fill="#1E1E1E"/>
<path d="M202.432 27.7977C202.432 27.9962 202.651 28.2344 202.91 28.3337C203.549 28.5719 204.008 29.1873 205.943 32.4231L207.619 35.2222V37.1478C207.619 39.2918 207.479 39.7087 206.601 40.1454C205.484 40.7211 206.003 40.9197 208.776 40.9395C210.232 40.9594 211.469 40.8998 211.529 40.8204C211.628 40.6616 211.509 40.5425 210.611 39.8675C210.152 39.5102 210.112 39.3514 210.052 37.3861L209.973 35.2818L211.13 33.237C213.025 29.902 213.823 28.7307 214.421 28.4131C214.74 28.2543 215 27.9565 215 27.758C215 27.4404 214.82 27.4205 212.865 27.4602C211.17 27.5198 210.691 27.5793 210.651 27.8175C210.611 27.9763 210.83 28.2344 211.15 28.3734C211.449 28.5322 211.688 28.7704 211.648 28.9292C211.628 29.088 211.11 30.1997 210.491 31.3908C209.554 33.1775 209.334 33.4951 209.115 33.2768C208.676 32.8202 206.621 29.1674 206.621 28.8498C206.621 28.691 206.86 28.4329 207.18 28.294C207.479 28.155 207.718 27.9168 207.718 27.758C207.718 27.5595 207.14 27.4999 205.065 27.4602C202.671 27.4404 202.432 27.4801 202.432 27.7977Z" fill="#1E1E1E"/>
</svg>
