<svg width="12" height="12" viewBox="0 0 12 12" fill="none" xmlns="http://www.w3.org/2000/svg">
<path fill-rule="evenodd" clip-rule="evenodd" d="M9.76603 3.23931C9.91585 3.39274 10 3.60072 10 3.81757C10 4.03441 9.91585 4.24239 9.76603 4.39582L5.49921 8.76002C5.3512 8.91157 5.151 8.99771 4.94158 8.99996C4.73217 9.0022 4.53025 8.92037 4.37917 8.77203L2.24576 6.67721C2.0927 6.52674 2.00436 6.32025 2.00016 6.10315C1.99596 5.88606 2.07624 5.67615 2.22335 5.51961C2.37047 5.36306 2.57235 5.2727 2.7846 5.2684C2.99685 5.2641 3.20208 5.34622 3.35513 5.49669L4.92319 7.03616L8.63532 3.23931C8.78533 3.08607 8.98867 3 9.20067 3C9.41268 3 9.61602 3.08607 9.76603 3.23931Z" fill="#396B61"/>
</svg>
