<svg width="170" height="16" viewBox="0 0 170 16" fill="none" xmlns="http://www.w3.org/2000/svg">
<path d="M23.7835 0.276049C21.5652 0.889112 19.8043 2.52395 18.981 4.70373C17.3345 9.086 19.0039 13.7635 22.8459 15.4891C24.3323 16.1703 27.5797 16.1703 29.0433 15.4891C33.8914 13.2639 35.195 6.27045 31.536 2.16065C30.0038 0.412285 26.3905 -0.473251 23.7835 0.276049ZM27.0994 1.77465C28.9061 2.61477 29.958 4.31773 30.4154 7.13328C31.1243 11.5156 28.8603 15.1031 25.7044 14.6263C24.8812 14.5128 24.4238 14.263 23.5777 13.4229C20.8563 10.789 20.5361 5.52115 22.9145 2.81913C24.1951 1.36594 25.4986 1.04805 27.0994 1.77465Z" fill="white"/>
<path d="M63.0033 0.298867C60.5564 0.911931 58.7955 2.34241 57.7892 4.47678C57.3776 5.36232 57.2861 5.97538 57.2861 8.15517C57.2861 10.3577 57.3547 10.9253 57.7892 11.8335C58.4982 13.3776 60.0532 14.808 61.6541 15.4211C62.9576 15.9206 63.232 15.9433 69.7496 15.8979C73.4543 15.8752 76.5873 15.7617 76.7017 15.6482C76.8617 15.4892 77.4792 12.9916 77.5249 12.4012C77.5478 11.9244 76.6559 12.3558 76.1985 13.0597C75.5125 14.1042 74.4834 14.5129 72.5167 14.5129C70.2298 14.5129 70.1841 14.422 70.2527 11.1297L70.3213 8.49576L71.4419 8.42764C73.1113 8.31411 73.6144 8.51846 74.0031 9.404C74.1861 9.83541 74.4834 10.1987 74.6663 10.1987C74.9408 10.1987 75.0094 9.7673 75.0094 7.81457C75.0094 5.52126 74.9865 5.43044 74.5749 5.6575C74.3233 5.77103 74.0489 6.08891 73.9803 6.33868C73.7973 6.90633 73.1799 7.06527 71.5562 6.97445L70.3213 6.90633L70.2527 4.63573C70.2298 3.38689 70.2984 2.20618 70.4128 2.02453C70.7101 1.59311 73.8202 1.41146 74.5291 1.77476C74.7807 1.9337 75.2152 2.45594 75.4667 2.93277C75.8098 3.59125 76.0842 3.84101 76.4501 3.84101C76.9532 3.84101 76.9761 3.7956 76.816 2.297C76.7017 1.45688 76.633 0.662164 76.633 0.525928C76.6102 0.321573 75.4896 0.253455 72.6768 0.298867C70.5042 0.298867 67.6914 0.253455 66.4336 0.16263C64.8099 0.0490999 63.8037 0.071806 63.0033 0.298867ZM67.0053 2.13806L67.577 2.70571V8.17787V13.65L66.9367 14.195C66.4565 14.6037 66.022 14.7399 65.2673 14.7399C62.2258 14.7399 60.3734 12.106 60.3734 7.79187C60.3734 4.59031 61.2882 2.6603 63.232 1.75206C64.4898 1.1617 66.1821 1.34335 67.0053 2.13806Z" fill="white"/>
<path d="M84.5224 0.366882C80.2459 1.66113 78.0505 6.67917 79.72 11.402C80.2231 12.8779 82.0068 14.7625 83.5162 15.4437C84.4767 15.8524 85.1398 15.9659 86.7864 15.9887C89.2105 15.9887 90.3768 15.5572 92.0005 14.0813C94.7447 11.561 95.2935 6.22505 93.0982 3.0462C91.3373 0.457706 87.7926 -0.632185 84.5224 0.366882ZM88.6388 2.02442C90.2853 3.0462 91.2915 5.49845 91.3144 8.49565C91.3144 11.5837 90.4225 13.491 88.6388 14.3084C86.1918 15.421 84.0421 14.1495 82.7386 10.8571C82.0297 9.08601 82.0526 5.97528 82.7615 4.40856C83.4018 3.00079 84.0193 2.3196 85.1856 1.75195C86.2604 1.25242 87.5182 1.36595 88.6388 2.02442Z" fill="white"/>
<path d="M115.098 0.253651C114.961 0.412593 114.16 2.47884 113.314 4.86298C110.524 12.6739 109.998 13.8773 109.129 14.672C108.672 15.0807 108.397 15.4894 108.466 15.5802C108.557 15.6711 109.724 15.7392 111.027 15.7392C113.017 15.7619 113.429 15.6938 113.429 15.4213C113.429 15.2397 113.108 14.8991 112.72 14.672C112.079 14.3087 112.011 14.1952 112.102 13.4232C112.171 12.969 112.399 12.197 112.582 11.7202L112.948 10.8574L115.532 10.9255L118.094 10.9936L118.528 12.356C119.008 13.9681 118.894 14.672 118.117 14.8764C117.796 14.9445 117.545 15.1715 117.545 15.3986C117.545 15.7165 117.934 15.7619 120.747 15.7619C123.651 15.7619 123.948 15.7165 123.948 15.3532C123.948 15.1488 123.811 14.9672 123.628 14.9672C123.445 14.9672 123.011 14.7174 122.667 14.4449C122.164 13.9908 121.616 12.6512 119.717 6.99735L117.385 0.0947075L116.356 0.0265894C115.715 -0.0188227 115.235 0.0720015 115.098 0.253651ZM116.607 6.22535C117.133 7.76936 117.545 9.15443 117.545 9.29067C117.545 9.4269 116.767 9.51773 115.487 9.51773C114.366 9.51773 113.429 9.4269 113.429 9.33608C113.429 8.49595 115.304 3.38709 115.624 3.38709C115.647 3.38709 116.104 4.65863 116.607 6.22535Z" fill="white"/>
<path d="M0 0.707724C0 0.934784 0.228687 1.20726 0.548849 1.32079C0.846142 1.43432 1.1663 1.7295 1.28065 1.95656C1.50933 2.4788 1.69228 11.4931 1.48647 13.1052C1.34925 14.1497 1.23491 14.3768 0.663192 14.6947C0.297293 14.9217 0 15.2396 0 15.4213C0 15.7164 0.480243 15.7618 2.97293 15.7846C5.6943 15.7846 5.94586 15.7618 5.94586 15.3758C5.94586 15.1261 5.71717 14.9217 5.37414 14.8309C4.50513 14.6038 4.29931 13.9908 4.1621 11.1752L4.04776 8.63214L4.71095 8.35967C5.44275 8.0872 10.6797 8.15531 11.1599 8.45049C11.503 8.67755 11.5487 13.0598 11.2057 13.9227C11.0913 14.2632 10.7254 14.6265 10.4053 14.7855C10.0851 14.9217 9.83354 15.1942 9.83354 15.3986C9.83354 15.7164 10.2223 15.7618 12.8065 15.7618C15.505 15.7618 15.7794 15.7164 15.7794 15.3531C15.7794 15.1261 15.5278 14.8536 15.2077 14.7401C14.8875 14.6265 14.5216 14.2632 14.4073 13.9454C14.1557 13.3096 14.0871 2.93292 14.3158 2.09279C14.3844 1.82032 14.7503 1.50244 15.1162 1.3662C15.5278 1.22996 15.7794 0.980197 15.7794 0.73043C15.7794 0.367132 15.5278 0.32172 12.8065 0.32172C9.92501 0.32172 9.83354 0.344426 9.83354 0.798548C9.83354 1.16185 10.0165 1.32079 10.4967 1.41161C11.3429 1.59326 11.4801 2.20632 11.3886 4.97646L11.32 6.90648L8.02691 6.9746C5.64857 7.02001 4.66521 6.95189 4.41366 6.74754C4.11636 6.52048 4.07063 6.04365 4.18497 4.22716C4.29931 1.91115 4.50513 1.41161 5.32841 1.29808C5.60283 1.25267 5.85439 1.04832 5.90012 0.821254C5.96873 0.480663 5.74004 0.435251 3.61325 0.389839C2.30974 0.389839 0.983354 0.344426 0.640323 0.32172C0.160081 0.276308 0 0.367132 0 0.707724Z" fill="white"/>
<path d="M36.3612 0.707691C36.3612 0.912046 36.6356 1.22993 37.0015 1.38887L37.619 1.70676L37.5732 4.97643C37.5732 6.79292 37.4818 9.54035 37.3903 11.0844L37.2302 13.8999L36.4527 14.6719C36.0182 15.1033 35.698 15.512 35.7666 15.6029C35.8809 15.8072 40.4776 15.7618 40.4776 15.5575C40.4776 15.4893 40.4776 15.3304 40.4776 15.2169C40.4776 15.0806 40.2031 14.8536 39.8601 14.6946L39.2198 14.3994L39.1512 11.1071C39.0597 7.54222 39.2655 4.06819 39.5399 4.06819C39.6543 4.06819 40.4776 5.9755 41.3923 8.31422C44.2738 15.6937 44.2051 15.5348 44.9369 15.5348C45.5773 15.5348 45.6459 15.4212 47.2238 11.425C48.0928 9.15435 49.1219 6.52044 49.4649 5.56679C49.8308 4.61314 50.1967 3.88654 50.3111 3.95466C50.5398 4.0909 50.8828 13.3777 50.677 14.0134C50.5855 14.2632 50.2196 14.5811 49.8537 14.7173C49.3963 14.8536 49.1677 15.1033 49.1677 15.3985C49.1677 15.8072 49.3277 15.8299 52.0262 15.8072C55.205 15.7618 55.4108 15.6256 54.1988 14.513C53.6271 13.968 53.5127 13.6956 53.5127 12.7646C53.5127 12.1743 53.3984 9.54035 53.284 6.92915C53.1697 4.00007 53.1697 2.02464 53.3069 1.77488C53.4212 1.54782 53.7414 1.34346 54.0158 1.29805C54.336 1.25264 54.5647 1.04828 54.6104 0.753103C54.679 0.298983 54.5875 0.276277 52.2778 0.298983L49.8766 0.321689L48.23 4.74937C46.5149 9.40412 45.8517 10.88 45.5315 10.88C45.3028 10.88 44.8683 9.90365 42.5815 4.18172L41.0264 0.321689H38.6938C36.6585 0.321689 36.3612 0.367101 36.3612 0.707691Z" fill="white"/>
<path d="M97.1919 0.730479C97.1919 0.95754 97.3748 1.1846 97.6035 1.27542C98.7927 1.68413 98.7927 1.68413 98.7927 7.72395C98.7927 10.8574 98.7012 13.6048 98.564 13.9454C98.4497 14.2633 98.0838 14.6266 97.7636 14.7401C97.4435 14.8537 97.1919 15.1261 97.1919 15.3532C97.1919 15.7165 97.4663 15.7619 100.165 15.7619C102.863 15.7619 103.138 15.7165 103.138 15.3532C103.138 15.1261 102.886 14.8537 102.589 14.7401C101.743 14.4222 101.537 13.8319 101.537 11.584V9.51773H102.978C107.003 9.51773 109.632 7.36065 109.221 4.38616C108.992 2.72861 108.237 1.5706 106.911 0.912127C105.813 0.344476 105.63 0.32177 101.491 0.32177C97.5121 0.32177 97.1919 0.344476 97.1919 0.730479ZM104.67 1.95661C106.134 2.63779 106.774 4.97651 105.928 6.54323C105.356 7.58771 104.235 8.15536 102.749 8.15536H101.537V5.02192C101.537 3.29626 101.606 1.79766 101.697 1.72955C101.994 1.43437 103.87 1.5706 104.67 1.95661Z" fill="white"/>
<path d="M124.04 0.48068C123.994 0.548798 123.88 1.11645 123.811 1.72951C123.742 2.31987 123.651 3.09188 123.605 3.43247C123.445 4.43153 124.2 4.22718 125.046 3.04646C125.457 2.47881 126.029 1.91116 126.372 1.79763C127.127 1.50245 128.453 1.50245 128.636 1.79763C128.705 1.91116 128.796 4.61318 128.796 7.79203C128.842 12.8101 128.796 13.6275 128.453 14.127C128.247 14.4449 127.859 14.7628 127.607 14.8536C127.356 14.9217 127.15 15.1715 127.15 15.3986C127.15 15.7846 127.401 15.8073 130.237 15.7846C133.027 15.7619 133.324 15.7164 133.324 15.3532C133.324 15.1261 133.141 14.899 132.936 14.8082C131.723 14.3768 131.723 14.4449 131.723 7.90556V1.79763L132.318 1.66139C133.118 1.45704 134.445 1.70681 134.948 2.13822C135.154 2.34258 135.52 2.86482 135.725 3.29623C135.931 3.72765 136.251 4.06824 136.48 4.06824C136.8 4.06824 136.869 3.86388 136.8 2.66046C136.686 0.049264 137.441 0.321736 130.328 0.321736C126.921 0.321736 124.085 0.389855 124.04 0.48068Z" fill="white"/>
<path d="M138.355 0.730355C138.355 0.957416 138.63 1.22989 138.973 1.36612C139.316 1.50236 139.682 1.72942 139.773 1.86566C140.025 2.25166 140.002 13.4685 139.75 14.1269C139.636 14.4448 139.27 14.74 138.95 14.8308C138.561 14.9216 138.355 15.126 138.355 15.4439C138.355 15.8753 138.47 15.898 141.374 15.8299C144.576 15.7391 145.147 15.5347 143.844 14.8535C142.883 14.354 142.701 13.7409 142.701 10.88V8.405L143.73 8.24606C145.056 8.06441 149.355 8.22335 149.767 8.47312C150.019 8.63206 150.064 9.19972 149.95 11.2206C149.813 14.0361 149.63 14.6265 148.761 14.8308C148.418 14.9216 148.189 15.126 148.189 15.3985C148.189 15.7845 148.395 15.8299 151.276 15.7845C153.906 15.7618 154.364 15.7164 154.318 15.4212C154.272 15.2395 153.975 14.9443 153.632 14.7854C153.22 14.6038 152.923 14.2178 152.763 13.6501C152.511 12.7192 152.488 2.93284 152.74 2.0246C152.831 1.68401 153.106 1.41154 153.449 1.34342C153.792 1.2753 154.043 1.02553 154.089 0.775767C154.158 0.344352 153.998 0.321646 151.162 0.321646C148.28 0.321646 148.166 0.321646 148.235 0.775767C148.28 1.04824 148.509 1.25259 148.806 1.29801C149.081 1.34342 149.424 1.50236 149.561 1.68401C149.858 2.04731 150.133 5.58945 149.927 6.42958L149.767 7.04264L146.291 6.97452L142.815 6.9064L142.746 4.6585C142.678 2.22895 142.975 1.34342 143.844 1.34342C144.096 1.34342 144.301 1.18448 144.301 1.00283C144.301 0.821179 144.301 0.616824 144.301 0.548706C144.301 0.480588 142.975 0.41247 141.328 0.367058C138.607 0.321646 138.355 0.367058 138.355 0.730355Z" fill="white"/>
<path d="M155.507 0.73047C155.507 0.95753 155.758 1.23 156.056 1.34353C156.787 1.61601 157.313 2.31989 159.532 6.02098L161.453 9.22254V11.425C161.453 13.8773 161.293 14.3541 160.286 14.8536C159.006 15.5121 159.6 15.7392 162.779 15.7619C164.448 15.7846 165.866 15.7165 165.935 15.6256C166.049 15.444 165.912 15.3078 164.883 14.5358C164.357 14.127 164.311 13.9454 164.243 11.6975L164.151 9.29066L165.478 6.95193C167.65 3.13731 168.565 1.79766 169.251 1.43436C169.617 1.25271 169.914 0.912118 169.914 0.685058C169.914 0.32176 169.708 0.299054 167.467 0.344466C165.523 0.412584 164.974 0.480702 164.929 0.753176C164.883 0.934824 165.135 1.23 165.5 1.38895C165.843 1.57059 166.118 1.84307 166.072 2.02472C166.049 2.20636 165.455 3.4779 164.746 4.84027C163.671 6.88381 163.419 7.24711 163.168 6.99734C162.665 6.4751 160.309 2.29719 160.309 1.93389C160.309 1.75224 160.584 1.45706 160.95 1.29812C161.293 1.13918 161.567 0.866706 161.567 0.685058C161.567 0.457996 160.904 0.389878 158.526 0.344466C155.781 0.32176 155.507 0.367172 155.507 0.73047Z" fill="white"/>
</svg>
