<svg width="24" height="24" viewBox="0 0 24 24" fill="none" xmlns="http://www.w3.org/2000/svg">
<path d="M3.75 16.999L20.25 16.999C20.6642 16.999 21 16.6632 21 16.249C21 15.8348 20.6642 15.499 20.25 15.499L3.75 15.499C3.33579 15.499 3 15.8348 3 16.249C3 16.6632 3.33579 16.999 3.75 16.999Z" fill="#1E1E1E"/>
<path d="M6.75 12.749L20.25 12.749C20.6642 12.749 21 12.4132 21 11.999C21 11.5848 20.6642 11.249 20.25 11.249L6.75 11.249C6.33579 11.249 6 11.5848 6 11.999C6 12.4132 6.33579 12.749 6.75 12.749Z" fill="#1E1E1E"/>
<path d="M3.75 8.501L20.25 8.501C20.6642 8.501 21 8.16522 21 7.751C21 7.33679 20.6642 7.001 20.25 7.001L3.75 7.001C3.33579 7.001 3 7.33679 3 7.751C3 8.16521 3.33579 8.501 3.75 8.501Z" fill="#1E1E1E"/>
</svg>
